# Rhino

mtllib TOOLS_Templates_Spanner_Cut_Outs.mtl
g object_1
usemtl Default
v 4.292985916137695 -5 -2.541476249694824
v 4.292985916137695 5 -2.541476249694824
v 4.273940563201904 -5 -2.838074207305908
v 4.273940563201904 5 -2.838074207305908
v 4.214383125305176 -5 -3.142112731933594
v 4.214383125305176 5 -3.142112731933594
v 4.111241340637207 -5 -3.449738025665283
v 4.111241340637207 5 -3.449738025665283
v 3.962409019470215 -5 -3.756509304046631
v 3.962409019470215 5 -3.756509304046631
v 3.766994714736938 -5 -4.057548046112061
v 3.766994714736938 5 -4.057548046112061
v 3.525513648986816 -5 -4.347744941711426
v 3.525513648986816 5 -4.347744941711426
v 3.239991903305054 -5 -4.622008800506592
v 3.239991903305054 5 -4.622008800506592
v 2.913959741592407 -5 -4.87554407119751
v 2.913959741592407 5 -4.87554407119751
v 2.552322149276733 -5 -5.104117393493652
v 2.552322149276733 5 -5.104117393493652
v 2.161118030548096 -5 -5.304290294647217
v 2.161118030548096 5 -5.304290294647217
v 1.747187852859497 -5 -5.473586559295654
v 1.747187852859497 5 -5.473586559295654
v 1.317792177200317 -5 -5.610587120056152
v 1.317792177200317 5 -5.610587120056152
v 0.8802201747894287 -5 -5.714929580688477
v 0.8802201747894287 5 -5.714929580688477
v 0.4414302706718445 -5 -5.787240028381348
v 0.4414302706718445 5 -5.787240028381348
v 0.007756139151751995 -5 -5.828994274139404
v 0.007756139151751995 5 -5.828994274139404
v -0.8383654952049255 -5 -5.828994274139404
v -0.8383654952049255 5 -5.828994274139404
v -1.272039651870728 -5 -5.787240028381348
v -1.272039651870728 5 -5.787240028381348
v -1.710829615592957 -5 -5.714929580688477
v -1.710829615592957 5 -5.714929580688477
v -2.148401498794556 -5 -5.610587120056152
v -2.148401498794556 5 -5.610587120056152
v -2.577797174453735 -5 -5.473586559295654
v -2.577797174453735 5 -5.473586559295654
v -2.991727352142334 -5 -5.304290294647217
v -2.991727352142334 5 -5.304290294647217
v -3.382931470870972 -5 -5.104117393493652
v -3.382931470870972 5 -5.104117393493652
v -3.744569063186646 -5 -4.87554407119751
v -3.744569063186646 5 -4.87554407119751
v -4.070600986480713 -5 -4.622008800506592
v -4.070600986480713 5 -4.622008800506592
v -4.356122970581055 -5 -4.347744941711426
v -4.356122970581055 5 -4.347744941711426
v -4.597604274749756 -5 -4.057548046112061
v -4.597604274749756 5 -4.057548046112061
v -4.793018341064453 -5 -3.756509304046631
v -4.793018341064453 5 -3.756509304046631
v -4.941850662231445 -5 -3.449738025665283
v -4.941850662231445 5 -3.449738025665283
v -5.044992446899414 -5 -3.142112731933594
v -5.044992446899414 5 -3.142112731933594
v -5.104549884796143 -5 -2.838074207305908
v -5.104549884796143 5 -2.838074207305908
v -5.123595237731934 -5 -2.541476249694824
v -5.123595237731934 5 -2.541476249694824
v -5.123595237731934 -5 3.98256778717041
v -5.123595237731934 5 3.98256778717041
v -5.123595237731934 -5 3.98256778717041
v -5.123595237731934 5 3.98256778717041
v 4.292985916137695 -5 3.98256778717041
v 4.292985916137695 5 3.98256778717041
v 4.292985916137695 -5 3.98256778717041
v 4.292985916137695 5 3.98256778717041
v 4.292985916137695 -5 -2.541476249694824
v 4.292985916137695 5 -2.541476249694824
v 4.292985916137695 -5 -2.541476249694824
v 4.273940563201904 -5 -2.838074207305908
v 4.214383125305176 -5 -3.142112731933594
v 4.111241340637207 -5 -3.449738025665283
v 3.962409019470215 -5 -3.756509304046631
v 3.766994714736938 -5 -4.057548046112061
v 3.525513648986816 -5 -4.347744941711426
v 3.239991903305054 -5 -4.622008800506592
v 2.913959741592407 -5 -4.87554407119751
v 2.552322149276733 -5 -5.104117393493652
v 2.161118030548096 -5 -5.304290294647217
v 1.747187852859497 -5 -5.473586559295654
v 1.317792177200317 -5 -5.610587120056152
v 0.8802201747894287 -5 -5.714929580688477
v 0.4414302706718445 -5 -5.787240028381348
v 0.007756139151751995 -5 -5.828994274139404
v -0.8383654952049255 -5 -5.828994274139404
v -1.272039651870728 -5 -5.787240028381348
v -1.710829615592957 -5 -5.714929580688477
v -2.148401498794556 -5 -5.610587120056152
v -2.577797174453735 -5 -5.473586559295654
v -2.991727352142334 -5 -5.304290294647217
v -3.382931470870972 -5 -5.104117393493652
v -3.744569063186646 -5 -4.87554407119751
v -4.070600986480713 -5 -4.622008800506592
v -4.356122970581055 -5 -4.347744941711426
v -4.597604274749756 -5 -4.057548046112061
v -4.793018341064453 -5 -3.756509304046631
v -4.941850662231445 -5 -3.449738025665283
v -5.044992446899414 -5 -3.142112731933594
v -5.104549884796143 -5 -2.838074207305908
v -5.123595237731934 -5 -2.541476249694824
v -5.123595237731934 -5 3.98256778717041
v 4.292985916137695 -5 3.98256778717041
v 4.292985916137695 5 -2.541476249694824
v 4.273940563201904 5 -2.838074207305908
v 4.214383125305176 5 -3.142112731933594
v 4.111241340637207 5 -3.449738025665283
v 3.962409019470215 5 -3.756509304046631
v 3.766994714736938 5 -4.057548046112061
v 3.525513648986816 5 -4.347744941711426
v 3.239991903305054 5 -4.622008800506592
v 2.913959741592407 5 -4.87554407119751
v 2.552322149276733 5 -5.104117393493652
v 2.161118030548096 5 -5.304290294647217
v 1.747187852859497 5 -5.473586559295654
v 1.317792177200317 5 -5.610587120056152
v 0.8802201747894287 5 -5.714929580688477
v 0.4414302706718445 5 -5.787240028381348
v 0.007756139151751995 5 -5.828994274139404
v -0.8383654952049255 5 -5.828994274139404
v -1.272039651870728 5 -5.787240028381348
v -1.710829615592957 5 -5.714929580688477
v -2.148401498794556 5 -5.610587120056152
v -2.577797174453735 5 -5.473586559295654
v -2.991727352142334 5 -5.304290294647217
v -3.382931470870972 5 -5.104117393493652
v -3.744569063186646 5 -4.87554407119751
v -4.070600986480713 5 -4.622008800506592
v -4.356122970581055 5 -4.347744941711426
v -4.597604274749756 5 -4.057548046112061
v -4.793018341064453 5 -3.756509304046631
v -4.941850662231445 5 -3.449738025665283
v -5.044992446899414 5 -3.142112731933594
v -5.104549884796143 5 -2.838074207305908
v -5.123595237731934 5 -2.541476249694824
v -5.123595237731934 5 3.98256778717041
v 4.292985916137695 5 3.98256778717041
vt 0 0
vt 0 0.673410952091217
vt 0.00132416223641485 0
vt 0.00132416223641485 0.673410952091217
vt 0.0026483244728297 0
vt 0.0026483244728297 0.673410952091217
vt 0.003972486592829227 0
vt 0.003972486592829227 0.673410952091217
vt 0.005296648945659399 0
vt 0.005296648945659399 0.673410952091217
vt 0.006620811298489571 0
vt 0.006620811298489571 0.673410952091217
vt 0.007944973185658455 0
vt 0.007944973185658455 0.673410952091217
vt 0.009269136004149914 0
vt 0.009269136004149914 0.673410952091217
vt 0.0105932978913188 0
vt 0.0105932978913188 0.673410952091217
vt 0.01191746070981026 0
vt 0.01191746070981026 0.673410952091217
vt 0.01324162259697914 0
vt 0.01324162259697914 0.673410952091217
vt 0.01456578448414803 0
vt 0.01456578448414803 0.673410952091217
vt 0.01588994637131691 0
vt 0.01588994637131691 0.673410952091217
vt 0.01721411012113094 0
vt 0.01721411012113094 0.673410952091217
vt 0.01853827200829983 0
vt 0.01853827200829983 0.673410952091217
vt 0.01986243389546871 0
vt 0.01986243389546871 0.673410952091217
vt 0.02251075766980648 0
vt 0.02251075766980648 0.673410952091217
vt 0.02383492141962051 0
vt 0.02383492141962051 0.673410952091217
vt 0.0251590833067894 0
vt 0.0251590833067894 0.673410952091217
vt 0.02648324519395828 0
vt 0.02648324519395828 0.673410952091217
vt 0.02780740708112717 0
vt 0.02780740708112717 0.673410952091217
vt 0.02913156896829605 0
vt 0.02913156896829605 0.673410952091217
vt 0.03045573271811008 0
vt 0.03045573271811008 0.673410952091217
vt 0.03177989274263382 0
vt 0.03177989274263382 0.673410952091217
vt 0.0331040546298027 0
vt 0.0331040546298027 0.673410952091217
vt 0.03442822024226189 0
vt 0.03442822024226189 0.673410952091217
vt 0.03575238212943077 0
vt 0.03575238212943077 0.673410952091217
vt 0.03707654401659966 0
vt 0.03707654401659966 0.673410952091217
vt 0.03840070590376854 0
vt 0.03840070590376854 0.673410952091217
vt 0.03972486779093742 0
vt 0.03972486779093742 0.673410952091217
vt 0.04104902967810631 0
vt 0.04104902967810631 0.673410952091217
vt 0.04237319156527519 0
vt 0.04237319156527519 0.673410952091217
vt 0.3204809725284576 0
vt 0.3204809725284576 0.673410952091217
vt 0.3204809725284576 0
vt 0.3204809725284576 0.673410952091217
vt 0.721892237663269 0
vt 0.721892237663269 0.673410952091217
vt 0.721892237663269 0
vt 0.721892237663269 0.673410952091217
vt 1 0
vt 1 0.673410952091217
vt 0.09356223791837692 0.6734116673469543
vt 0.08512111008167267 0.6740722060203552
vt 0.07646821439266205 0.6761378049850464
vt 0.06771325320005417 0.6797149777412415
vt 0.05898259207606316 0.6848767995834351
vt 0.05041507259011269 0.6916542053222656
vt 0.04215612635016441 0.7000293135643005
vt 0.03435061872005463 0.7099318504333496
vt 0.02713504061102867 0.7212393879890442
vt 0.02062987722456455 0.7337818145751953
vt 0.01493300218135118 0.7473496794700623
vt 0.01011484581977129 0.7617056965827942
vt 0.006215839181095362 0.7765980958938599
vt 0.003246263368055224 0.7917740941047668
vt 0.00118832616135478 0.8069922924041748
vt 0 0.8220331072807312
vt 0 0.8513785600662231
vt 0.00118832616135478 0.8664193153381348
vt 0.003246263368055224 0.8816375732421875
vt 0.006215839181095362 0.8968135714530945
vt 0.01011484581977129 0.9117059707641602
vt 0.01493300218135118 0.9260619878768921
vt 0.02062987722456455 0.939629852771759
vt 0.02713504061102867 0.9521722197532654
vt 0.03435061872005463 0.96347975730896
vt 0.04215612635016441 0.973382294178009
vt 0.05041507259011269 0.9817574024200439
vt 0.05898259207606316 0.9885348677635193
vt 0.06771325320005417 0.9936966896057129
vt 0.07646821439266205 0.997273862361908
vt 0.08512111008167267 0.9993394613265991
vt 0.09356223791837692 1
vt 0.2792354822158813 1
vt 0.2792354822158813 0.6734116673469543
vt 0.09356223791837692 1
vt 0.08512111008167267 0.9993394613265991
vt 0.07646821439266205 0.997273862361908
vt 0.06771325320005417 0.9936966896057129
vt 0.05898259207606316 0.9885348677635193
vt 0.05041507259011269 0.9817574024200439
vt 0.04215612635016441 0.973382294178009
vt 0.03435061872005463 0.96347975730896
vt 0.02713504061102867 0.9521722197532654
vt 0.02062987722456455 0.939629852771759
vt 0.01493300218135118 0.9260619878768921
vt 0.01011484581977129 0.9117059707641602
vt 0.006215839181095362 0.8968135714530945
vt 0.003246263368055224 0.8816375732421875
vt 0.00118832616135478 0.8664193153381348
vt 0 0.8513785600662231
vt 0 0.8220331072807312
vt 0.00118832616135478 0.8069922924041748
vt 0.003246263368055224 0.7917740941047668
vt 0.006215839181095362 0.7765980958938599
vt 0.01011484581977129 0.7617056965827942
vt 0.01493300218135118 0.7473496794700623
vt 0.02062987722456455 0.7337818145751953
vt 0.02713504061102867 0.7212393879890442
vt 0.03435061872005463 0.7099318504333496
vt 0.04215612635016441 0.7000293135643005
vt 0.05041507259011269 0.6916542053222656
vt 0.05898259207606316 0.6848767995834351
vt 0.06771325320005417 0.6797149777412415
vt 0.07646821439266205 0.6761378049850464
vt 0.08512111008167267 0.6740722060203552
vt 0.09356223791837692 0.6734116673469543
vt 0.2792354822158813 0.6734116673469543
vt 0.2792354822158813 1
vn 1 0 2.630021377005194e-14
vn 1 0 2.630021377005194e-14
vn 0.9918212890625 0 -0.1276344954967499
vn 0.9918212890625 0 -0.1276344954967499
vn 0.9668846130371094 0 -0.2552138566970825
vn 0.9668846130371094 0 -0.2552138566970825
vn 0.9258233904838562 0 -0.3779564499855042
vn 0.9258233904838562 0 -0.3779564499855042
vn 0.8707593679428101 0 -0.4917093515396118
vn 0.8707593679428101 0 -0.4917093515396118
vn 0.8047949075698853 0 -0.5935530066490173
vn 0.8047949075698853 0 -0.5935530066490173
vn 0.7313461899757385 0 -0.6820064187049866
vn 0.7313461899757385 0 -0.6820064187049866
vn 0.6535747051239014 0 -0.7568619847297668
vn 0.6535747051239014 0 -0.7568619847297668
vn 0.5740535855293274 0 -0.8188177347183228
vn 0.5740535855293274 0 -0.8188177347183228
vn 0.4946669936180115 0 -0.8690825700759888
vn 0.4946669936180115 0 -0.8690825700759888
vn 0.416666179895401 0 -0.9090595841407776
vn 0.416666179895401 0 -0.9090595841407776
vn 0.3407970368862152 0 -0.9401369094848633
vn 0.3407970368862152 0 -0.9401369094848633
vn 0.2674398124217987 0 -0.9635745882987976
vn 0.2674398124217987 0 -0.9635745882987976
vn 0.1967310011386871 0 -0.9804574847221375
vn 0.1967310011386871 0 -0.9804574847221375
vn 0.1286576241254807 0 -0.9916890859603882
vn 0.1286576241254807 0 -0.9916890859603882
vn 0.06312451511621475 0 -0.9980056881904602
vn 0.06312451511621475 0 -0.9980056881904602
vn -0.06312451511621475 0 -0.9980056881904602
vn -0.06312451511621475 0 -0.9980056881904602
vn -0.1286576241254807 0 -0.9916890859603882
vn -0.1286576241254807 0 -0.9916890859603882
vn -0.1967310011386871 0 -0.9804574847221375
vn -0.1967310011386871 0 -0.9804574847221375
vn -0.2674398124217987 0 -0.9635745882987976
vn -0.2674398124217987 0 -0.9635745882987976
vn -0.3407970368862152 0 -0.9401369094848633
vn -0.3407970368862152 0 -0.9401369094848633
vn -0.416666179895401 0 -0.9090595841407776
vn -0.416666179895401 0 -0.9090595841407776
vn -0.4946669936180115 0 -0.8690825700759888
vn -0.4946669936180115 0 -0.8690825700759888
vn -0.5740535855293274 0 -0.8188177347183228
vn -0.5740535855293274 0 -0.8188177347183228
vn -0.6535747051239014 0 -0.7568619847297668
vn -0.6535747051239014 0 -0.7568619847297668
vn -0.7313461899757385 0 -0.6820064187049866
vn -0.7313461899757385 0 -0.6820064187049866
vn -0.8047949075698853 0 -0.5935530066490173
vn -0.8047949075698853 0 -0.5935530066490173
vn -0.8707593679428101 0 -0.4917093515396118
vn -0.8707593679428101 0 -0.4917093515396118
vn -0.9258233904838562 0 -0.3779564499855042
vn -0.9258233904838562 0 -0.3779564499855042
vn -0.9668846130371094 0 -0.2552138566970825
vn -0.9668846130371094 0 -0.2552138566970825
vn -0.9918212890625 0 -0.1276344954967499
vn -0.9918212890625 0 -0.1276344954967499
vn -1 0 0
vn -1 0 0
vn -1 0 0
vn -1 0 0
vn 0 0 1
vn 0 0 1
vn 0 0 1
vn 0 0 1
vn 1 0 0
vn 1 0 0
vn 1 0 0
vn 1 0 0
vn 0 -1 0
vn 0 -1 0
vn 0 -1 0
vn 0 -1 0
vn 0 -1 0
vn 0 -1 0
vn 0 -1 0
vn 0 -1 0
vn 0 -1 0
vn 0 -1 0
vn 0 -1 0
vn 0 -1 0
vn 0 -1 0
vn 0 -1 0
vn 0 -1 0
vn 0 -1 0
vn 0 -1 0
vn 0 -1 0
vn 0 -1 0
vn 0 -1 0
vn 0 -1 0
vn 0 -1 0
vn 0 -1 0
vn 0 -1 0
vn 0 -1 0
vn 0 -1 0
vn 0 -1 0
vn 0 -1 0
vn 0 -1 0
vn 0 -1 0
vn 0 -1 0
vn 0 -1 0
vn 0 -1 0
vn 0 -1 0
vn 0 1 0
vn 0 1 0
vn 0 1 0
vn 0 1 0
vn 0 1 0
vn 0 1 0
vn 0 1 0
vn 0 1 0
vn 0 1 0
vn 0 1 0
vn 0 1 0
vn 0 1 0
vn 0 1 0
vn 0 1 0
vn 0 1 0
vn 0 1 0
vn 0 1 0
vn 0 1 0
vn 0 1 0
vn 0 1 0
vn 0 1 0
vn 0 1 0
vn 0 1 0
vn 0 1 0
vn 0 1 0
vn 0 1 0
vn 0 1 0
vn 0 1 0
vn 0 1 0
vn 0 1 0
vn 0 1 0
vn 0 1 0
vn 0 1 0
vn 0 1 0
f 1/1/1 3/3/3 4/4/4 2/2/2
f 3/3/3 5/5/5 6/6/6 4/4/4
f 5/5/5 7/7/7 8/8/8 6/6/6
f 7/7/7 9/9/9 10/10/10 8/8/8
f 9/9/9 11/11/11 12/12/12 10/10/10
f 11/11/11 13/13/13 14/14/14 12/12/12
f 13/13/13 15/15/15 16/16/16 14/14/14
f 15/15/15 17/17/17 18/18/18 16/16/16
f 17/17/17 19/19/19 20/20/20 18/18/18
f 19/19/19 21/21/21 22/22/22 20/20/20
f 21/21/21 23/23/23 24/24/24 22/22/22
f 23/23/23 25/25/25 26/26/26 24/24/24
f 25/25/25 27/27/27 28/28/28 26/26/26
f 27/27/27 29/29/29 30/30/30 28/28/28
f 29/29/29 31/31/31 32/32/32 30/30/30
f 31/31/31 33/33/33 34/34/34 32/32/32
f 33/33/33 35/35/35 36/36/36 34/34/34
f 35/35/35 37/37/37 38/38/38 36/36/36
f 37/37/37 39/39/39 40/40/40 38/38/38
f 39/39/39 41/41/41 42/42/42 40/40/40
f 41/41/41 43/43/43 44/44/44 42/42/42
f 43/43/43 45/45/45 46/46/46 44/44/44
f 45/45/45 47/47/47 48/48/48 46/46/46
f 47/47/47 49/49/49 50/50/50 48/48/48
f 49/49/49 51/51/51 52/52/52 50/50/50
f 51/51/51 53/53/53 54/54/54 52/52/52
f 53/53/53 55/55/55 56/56/56 54/54/54
f 55/55/55 57/57/57 58/58/58 56/56/56
f 57/57/57 59/59/59 60/60/60 58/58/58
f 59/59/59 61/61/61 62/62/62 60/60/60
f 61/61/61 63/63/63 64/64/64 62/62/62
f 63/63/63 65/65/65 66/66/66 64/64/64
f 67/67/67 69/69/69 70/70/70 68/68/68
f 71/71/71 73/73/73 74/74/74 72/72/72
f 103/103/103 106/106/106 104/104/104
f 106/106/106 105/105/105 104/104/104
f 99/99/99 106/106/106 100/100/100
f 102/102/102 106/106/106 103/103/103
f 101/101/101 106/106/106 102/102/102
f 101/101/101 100/100/100 106/106/106
f 90/90/90 106/106/106 91/91/91
f 98/98/98 106/106/106 99/99/99
f 97/97/97 106/106/106 98/98/98
f 106/106/106 97/97/97 96/96/96
f 96/96/96 95/95/95 106/106/106
f 94/94/94 106/106/106 95/95/95
f 106/106/106 94/94/94 93/93/93
f 106/106/106 93/93/93 92/92/92
f 92/92/92 91/91/91 106/106/106
f 108/108/108 107/107/107 106/106/106
f 79/79/79 78/78/78 75/75/75
f 80/80/80 79/79/79 75/75/75
f 81/81/81 80/80/80 75/75/75
f 78/78/78 77/77/77 75/75/75
f 75/75/75 77/77/77 76/76/76
f 106/106/106 90/90/90 75/75/75
f 82/82/82 81/81/81 75/75/75
f 75/75/75 88/88/88 87/87/87
f 75/75/75 89/89/89 88/88/88
f 75/75/75 90/90/90 89/89/89
f 75/75/75 84/84/84 83/83/83
f 75/75/75 86/86/86 85/85/85
f 85/85/85 84/84/84 75/75/75
f 75/75/75 87/87/87 86/86/86
f 83/83/83 82/82/82 75/75/75
f 108/108/108 106/106/106 75/75/75
f 137/137/137 138/138/138 140/140/140
f 140/140/140 138/138/138 139/139/139
f 133/133/133 134/134/134 140/140/140
f 136/136/136 137/137/137 140/140/140
f 135/135/135 136/136/136 140/140/140
f 135/135/135 140/140/140 134/134/134
f 124/124/124 125/125/125 140/140/140
f 132/132/132 133/133/133 140/140/140
f 131/131/131 132/132/132 140/140/140
f 140/140/140 130/130/130 131/131/131
f 130/130/130 140/140/140 129/129/129
f 128/128/128 129/129/129 140/140/140
f 140/140/140 127/127/127 128/128/128
f 140/140/140 126/126/126 127/127/127
f 126/126/126 140/140/140 125/125/125
f 142/142/142 140/140/140 141/141/141
f 113/113/113 109/109/109 112/112/112
f 114/114/114 109/109/109 113/113/113
f 115/115/115 109/109/109 114/114/114
f 112/112/112 109/109/109 111/111/111
f 109/109/109 110/110/110 111/111/111
f 140/140/140 109/109/109 124/124/124
f 116/116/116 109/109/109 115/115/115
f 109/109/109 121/121/121 122/122/122
f 109/109/109 122/122/122 123/123/123
f 109/109/109 123/123/123 124/124/124
f 109/109/109 117/117/117 118/118/118
f 109/109/109 119/119/119 120/120/120
f 119/119/119 109/109/109 118/118/118
f 109/109/109 120/120/120 121/121/121
f 117/117/117 109/109/109 116/116/116
f 142/142/142 109/109/109 140/140/140
