# Rhino

mtllib TOOLS_Templates_TypeB.mtl
g object_1
usemtl Default
v -14.30075359344482 0 1.933634281158447
v -14.30075359344482 5 1.933634281158447
v 50.10627746582031 0 1.933634281158447
v 50.10627746582031 5 1.933634281158447
v 50.10627746582031 0 1.933634281158447
v 50.10627746582031 5 1.933634281158447
v 50.10627746582031 0 -14.5426139831543
v 50.10627746582031 5 -14.5426139831543
v 50.10627746582031 0 -14.5426139831543
v 50.10627746582031 5 -14.5426139831543
v -14.30075359344482 0 -14.5426139831543
v -14.30075359344482 5 -14.5426139831543
v -16.05018615722656 0 -14.76474666595459
v -16.05018615722656 5 -14.76474666595459
v -17.74126052856445 0 -15.4464750289917
v -17.74126052856445 5 -15.4464750289917
v -19.19890975952148 0 -16.54180717468262
v -19.19890975952148 5 -16.54180717468262
v -20.29327201843262 0 -17.92463874816895
v -20.29327201843262 5 -17.92463874816895
v -21.58823204040527 0 -19.8127326965332
v -21.58823204040527 5 -19.8127326965332
v -23.07075119018555 0 -21.49954223632812
v -23.07075119018555 5 -21.49954223632812
v -24.70638275146484 0 -22.94780349731445
v -24.70638275146484 5 -22.94780349731445
v -26.45458793640137 0 -24.13166427612305
v -26.45458793640137 5 -24.13166427612305
v -28.27192687988281 0 -25.03805351257324
v -28.27192687988281 5 -25.03805351257324
v -30.11535453796387 0 -25.66661071777344
v -30.11535453796387 5 -25.66661071777344
v -31.94509124755859 0 -26.0283317565918
v -31.94509124755859 5 -26.0283317565918
v -33.72677230834961 0 -26.14328956604004
v -33.72677230834961 5 -26.14328956604004
v -36.74266052246094 0 -25.81208801269531
v -36.74266052246094 5 -25.81208801269531
v -39.82764053344727 0 -24.75037384033203
v -39.82764053344727 5 -24.75037384033203
v -42.79632949829102 0 -22.90947532653809
v -42.79632949829102 5 -22.90947532653809
v -45.44649124145508 0 -20.33263969421387
v -45.44649124145508 5 -20.33263969421387
v -47.59929275512695 0 -17.16047477722168
v -47.59929275512695 5 -17.16047477722168
v -49.13725662231445 0 -13.60704708099365
v -49.13725662231445 5 -13.60704708099365
v -50.02425765991211 0 -9.91441822052002
v -50.02425765991211 5 -9.91441822052002
v -50.30095672607422 0 -6.304490089416504
v -50.30095672607422 5 -6.304490089416504
v -50.02425765991211 0 -2.69456148147583
v -50.02425765991211 5 -2.69456148147583
v -49.13725662231445 0 0.9980672001838684
v -49.13725662231445 5 0.9980672001838684
v -47.59929275512695 0 4.551494598388672
v -47.59929275512695 5 4.551494598388672
v -45.44649124145508 0 7.723659515380859
v -45.44649124145508 5 7.723659515380859
v -42.79632949829102 0 10.30049610137939
v -42.79632949829102 5 10.30049610137939
v -39.82764053344727 0 12.14139366149902
v -39.82764053344727 5 12.14139366149902
v -36.74266052246094 0 13.2031078338623
v -36.74266052246094 5 13.2031078338623
v -33.72677230834961 0 13.53430938720703
v -33.72677230834961 5 13.53430938720703
v -31.94509124755859 0 13.41935062408447
v -31.94509124755859 5 13.41935062408447
v -30.11535263061523 0 13.05763053894043
v -30.11535263061523 5 13.05763053894043
v -28.27192497253418 0 12.42907333374023
v -28.27192497253418 5 12.42907333374023
v -26.45458602905273 0 11.52268505096436
v -26.45458602905273 5 11.52268505096436
v -24.70638275146484 0 10.33882427215576
v -24.70638275146484 5 10.33882427215576
v -23.07074928283691 0 8.890562057495117
v -23.07074928283691 5 8.890562057495117
v -21.58823204040527 0 7.203752994537354
v -21.58823204040527 5 7.203752994537354
v -20.29327201843262 0 5.315659999847412
v -20.29327201843262 5 5.315659999847412
v -19.19890975952148 0 3.93282675743103
v -19.19890975952148 5 3.93282675743103
v -17.74126052856445 0 2.83749532699585
v -17.74126052856445 5 2.83749532699585
v -16.05018615722656 0 2.155766725540161
v -16.05018615722656 5 2.155766725540161
v -14.30075359344482 0 1.933634281158447
v -14.30075359344482 5 1.933634281158447
v -14.30075359344482 0 1.933634281158447
v 50.10627746582031 0 1.933634281158447
v 50.10627746582031 0 -14.5426139831543
v -14.30075359344482 0 -14.5426139831543
v -16.05018615722656 0 -14.76474666595459
v -17.74126052856445 0 -15.4464750289917
v -19.19890975952148 0 -16.54180717468262
v -20.29327201843262 0 -17.92463874816895
v -21.58823204040527 0 -19.8127326965332
v -23.07075119018555 0 -21.49954223632812
v -24.70638275146484 0 -22.94780349731445
v -26.45458793640137 0 -24.13166427612305
v -28.27192687988281 0 -25.03805351257324
v -30.11535453796387 0 -25.66661071777344
v -31.94509124755859 0 -26.0283317565918
v -33.72677230834961 0 -26.14328956604004
v -36.74266052246094 0 -25.81208801269531
v -39.82764053344727 0 -24.75037384033203
v -42.79632949829102 0 -22.90947532653809
v -45.44649124145508 0 -20.33263969421387
v -47.59929275512695 0 -17.16047477722168
v -49.13725662231445 0 -13.60704708099365
v -50.02425765991211 0 -9.91441822052002
v -50.30095672607422 0 -6.304490089416504
v -50.02425765991211 0 -2.69456148147583
v -49.13725662231445 0 0.9980672001838684
v -47.59929275512695 0 4.551494598388672
v -45.44649124145508 0 7.723659515380859
v -42.79632949829102 0 10.30049610137939
v -39.82764053344727 0 12.14139366149902
v -36.74266052246094 0 13.2031078338623
v -33.72677230834961 0 13.53430938720703
v -31.94509124755859 0 13.41935062408447
v -30.11535263061523 0 13.05763053894043
v -28.27192497253418 0 12.42907333374023
v -26.45458602905273 0 11.52268505096436
v -24.70638275146484 0 10.33882427215576
v -23.07074928283691 0 8.890562057495117
v -21.58823204040527 0 7.203752994537354
v -20.29327201843262 0 5.315659999847412
v -19.19890975952148 0 3.93282675743103
v -17.74126052856445 0 2.83749532699585
v -16.05018615722656 0 2.155766725540161
v -14.30075359344482 5 1.933634281158447
v 50.10627746582031 5 1.933634281158447
v 50.10627746582031 5 -14.5426139831543
v -14.30075359344482 5 -14.5426139831543
v -16.05018615722656 5 -14.76474666595459
v -17.74126052856445 5 -15.4464750289917
v -19.19890975952148 5 -16.54180717468262
v -20.29327201843262 5 -17.92463874816895
v -21.58823204040527 5 -19.8127326965332
v -23.07075119018555 5 -21.49954223632812
v -24.70638275146484 5 -22.94780349731445
v -26.45458793640137 5 -24.13166427612305
v -28.27192687988281 5 -25.03805351257324
v -30.11535453796387 5 -25.66661071777344
v -31.94509124755859 5 -26.0283317565918
v -33.72677230834961 5 -26.14328956604004
v -36.74266052246094 5 -25.81208801269531
v -39.82764053344727 5 -24.75037384033203
v -42.79632949829102 5 -22.90947532653809
v -45.44649124145508 5 -20.33263969421387
v -47.59929275512695 5 -17.16047477722168
v -49.13725662231445 5 -13.60704708099365
v -50.02425765991211 5 -9.91441822052002
v -50.30095672607422 5 -6.304490089416504
v -50.02425765991211 5 -2.69456148147583
v -49.13725662231445 5 0.9980672001838684
v -47.59929275512695 5 4.551494598388672
v -45.44649124145508 5 7.723659515380859
v -42.79632949829102 5 10.30049610137939
v -39.82764053344727 5 12.14139366149902
v -36.74266052246094 5 13.2031078338623
v -33.72677230834961 5 13.53430938720703
v -31.94509124755859 5 13.41935062408447
v -30.11535263061523 5 13.05763053894043
v -28.27192497253418 5 12.42907333374023
v -26.45458602905273 5 11.52268505096436
v -24.70638275146484 5 10.33882427215576
v -23.07074928283691 5 8.890562057495117
v -21.58823204040527 5 7.203752994537354
v -20.29327201843262 5 5.315659999847412
v -19.19890975952148 5 3.93282675743103
v -17.74126052856445 5 2.83749532699585
v -16.05018615722656 5 2.155766725540161
vt 0 0
vt 0 0.5296363234519958
vt 0.3910738825798035 0
vt 0.3910738825798035 0.5296363234519958
vt 0.3910738825798035 0
vt 0.3910738825798035 0.5296363234519958
vt 0.4911161959171295 0
vt 0.4911161959171295 0.5296363234519958
vt 0.4911161959171295 0
vt 0.4911161959171295 0.5296363234519958
vt 0.8821900486946106 0
vt 0.8821900486946106 0.5296363234519958
vt 0.8931094408035278 0
vt 0.8931094408035278 0.5296363234519958
vt 0.9040288329124451 0
vt 0.9040288329124451 0.5296363234519958
vt 0.9149482250213623 0
vt 0.9149482250213623 0.5296363234519958
vt 0.9258676171302795 0
vt 0.9258676171302795 0.5296363234519958
vt 0.9265788197517395 0
vt 0.9265788197517395 0.5296363234519958
vt 0.9272900223731995 0
vt 0.9272900223731995 0.5296363234519958
vt 0.9280012249946594 0
vt 0.9280012249946594 0.5296363234519958
vt 0.9287124872207642 0
vt 0.9287124872207642 0.5296363234519958
vt 0.9294236898422241 0
vt 0.9294236898422241 0.5296363234519958
vt 0.9301348924636841 0
vt 0.9301348924636841 0.5296363234519958
vt 0.930846095085144 0
vt 0.930846095085144 0.5296363234519958
vt 0.931557297706604 0
vt 0.931557297706604 0.5296363234519958
vt 0.9327495098114014 0
vt 0.9327495098114014 0.5296363234519958
vt 0.9339417219161987 0
vt 0.9339417219161987 0.5296363234519958
vt 0.9351339340209961 0
vt 0.9351339340209961 0.5296363234519958
vt 0.9363261461257935 0
vt 0.9363261461257935 0.5296363234519958
vt 0.9375183582305908 0
vt 0.9375183582305908 0.5296363234519958
vt 0.938710629940033 0
vt 0.938710629940033 0.5296363234519958
vt 0.9399028420448303 0
vt 0.9399028420448303 0.5296363234519958
vt 0.9410950541496277 0
vt 0.9410950541496277 0.5296363234519958
vt 0.942287266254425 0
vt 0.942287266254425 0.5296363234519958
vt 0.9434794783592224 0
vt 0.9434794783592224 0.5296363234519958
vt 0.9446716904640198 0
vt 0.9446716904640198 0.5296363234519958
vt 0.9458639025688171 0
vt 0.9458639025688171 0.5296363234519958
vt 0.9470561146736145 0
vt 0.9470561146736145 0.5296363234519958
vt 0.9482483267784119 0
vt 0.9482483267784119 0.5296363234519958
vt 0.9494405388832092 0
vt 0.9494405388832092 0.5296363234519958
vt 0.9506327509880066 0
vt 0.9506327509880066 0.5296363234519958
vt 0.9513440132141113 0
vt 0.9513440132141113 0.5296363234519958
vt 0.9520552158355713 0
vt 0.9520552158355713 0.5296363234519958
vt 0.9527664184570312 0
vt 0.9527664184570312 0.5296363234519958
vt 0.9534776210784912 0
vt 0.9534776210784912 0.5296363234519958
vt 0.9541888236999512 0
vt 0.9541888236999512 0.5296363234519958
vt 0.9549000263214111 0
vt 0.9549000263214111 0.5296363234519958
vt 0.9556112289428711 0
vt 0.9556112289428711 0.5296363234519958
vt 0.9563224315643311 0
vt 0.9563224315643311 0.5296363234519958
vt 0.9672418236732483 0
vt 0.9672418236732483 0.5296363234519958
vt 0.9781612157821655 0
vt 0.9781612157821655 0.5296363234519958
vt 0.9890806078910828 0
vt 0.9890806078910828 0.5296363234519958
vt 1 0
vt 1 0.5296363234519958
vt 0.1441288739442825 0.8624783158302307
vt 0.4019860923290253 0.8624783158302307
vt 0.4019860923290253 0.6671585440635681
vt 0.1441288739442825 0.6671585440635681
vt 0.1371249109506607 0.6645252108573914
vt 0.1303545981645584 0.6564435958862305
vt 0.1245188266038895 0.6434588432312012
vt 0.120137482881546 0.627065896987915
vt 0.1149530336260796 0.6046832203865051
vt 0.1090176850557327 0.5846867561340332
vt 0.102469339966774 0.5675181150436401
vt 0.09547030180692673 0.5534839034080505
vt 0.08819448202848434 0.5427389740943909
vt 0.08081422001123428 0.5352876782417297
vt 0.07348876446485519 0.5309996008872986
vt 0.06635569781064987 0.5296368598937988
vt 0.05428141355514526 0.5335630774497986
vt 0.04193051904439926 0.5461493134498596
vt 0.03004521504044533 0.5679724812507629
vt 0.01943513564765453 0.5985199213027954
vt 0.01081627700477839 0.6361247897148132
vt 0.004658946301788092 0.6782492995262146
vt 0.001107783988118172 0.7220240831375122
vt 0 0.7648184299468994
vt 0.001107783988118172 0.8076127767562866
vt 0.004658946301788092 0.8513875007629395
vt 0.01081627700477839 0.8935120701789856
vt 0.01943513564765453 0.9311169385910034
vt 0.03004521504044533 0.9616643190383911
vt 0.04193051904439926 0.9834874868392944
vt 0.05428141355514526 0.9960737228393555
vt 0.06635569781064987 1
vt 0.07348876446485519 0.9986371994018555
vt 0.08081422001123428 0.9943491816520691
vt 0.08819448947906494 0.9868978261947632
vt 0.09547030925750732 0.9761529564857483
vt 0.102469339966774 0.9621186852455139
vt 0.1090176925063133 0.9449501037597656
vt 0.1149530336260796 0.9249536395072937
vt 0.120137482881546 0.9025709629058838
vt 0.1245188266038895 0.8861780166625977
vt 0.1303545981645584 0.8731932640075684
vt 0.1371249109506607 0.8651115894317627
vt 0.1441288739442825 0.6671585440635681
vt 0.4019860923290253 0.6671585440635681
vt 0.4019860923290253 0.8624783158302307
vt 0.1441288739442825 0.8624783158302307
vt 0.1371249109506607 0.8651115894317627
vt 0.1303545981645584 0.8731932640075684
vt 0.1245188266038895 0.8861780166625977
vt 0.120137482881546 0.9025709629058838
vt 0.1149530336260796 0.9249536395072937
vt 0.1090176850557327 0.9449501037597656
vt 0.102469339966774 0.9621186852455139
vt 0.09547030180692673 0.9761529564857483
vt 0.08819448202848434 0.9868978261947632
vt 0.08081422001123428 0.9943491816520691
vt 0.07348876446485519 0.9986371994018555
vt 0.06635569781064987 1
vt 0.05428141355514526 0.9960737228393555
vt 0.04193051904439926 0.9834874868392944
vt 0.03004521504044533 0.9616643190383911
vt 0.01943513564765453 0.9311169385910034
vt 0.01081627700477839 0.8935120701789856
vt 0.004658946301788092 0.8513875007629395
vt 0.001107783988118172 0.8076127767562866
vt 0 0.7648184299468994
vt 0.001107783988118172 0.7220240831375122
vt 0.004658946301788092 0.6782492995262146
vt 0.01081627700477839 0.6361247897148132
vt 0.01943513564765453 0.5985199213027954
vt 0.03004521504044533 0.5679724812507629
vt 0.04193051904439926 0.5461493134498596
vt 0.05428141355514526 0.5335630774497986
vt 0.06635569781064987 0.5296368598937988
vt 0.07348876446485519 0.5309996008872986
vt 0.08081422001123428 0.5352876782417297
vt 0.08819448947906494 0.5427389740943909
vt 0.09547030925750732 0.5534839034080505
vt 0.102469339966774 0.5675181150436401
vt 0.1090176925063133 0.5846867561340332
vt 0.1149530336260796 0.6046832203865051
vt 0.120137482881546 0.627065896987915
vt 0.1245188266038895 0.6434588432312012
vt 0.1303545981645584 0.6564435958862305
vt 0.1371249109506607 0.6645252108573914
vn -1.765130794112934e-15 0 1
vn -1.765130794112934e-15 0 1
vn -1.765130794112934e-15 0 1
vn -1.765130794112934e-15 0 1
vn 1 0 0
vn 1 0 0
vn 1 0 0
vn 1 0 0
vn 2.268193093199131e-13 0 -1
vn 2.268193093199131e-13 0 -1
vn -1.154585867017832e-12 0 -1
vn -1.154585867017832e-12 0 -1
vn 0.2499188482761383 0 -0.9682667851448059
vn 0.2499188482761383 0 -0.9682667851448059
vn 0.4915010035037994 0 -0.8708770275115967
vn 0.4915010035037994 0 -0.8708770275115967
vn 0.699736475944519 0 -0.7144010663032532
vn 0.699736475944519 0 -0.7144010663032532
vn 0.8560737371444702 0 -0.5168536901473999
vn 0.8560737371444702 0 -0.5168536901473999
vn 0.7897557020187378 0 -0.6134214997291565
vn 0.7897557020187378 0 -0.6134214997291565
vn 0.7087811231613159 0 -0.7054284811019897
vn 0.7087811231613159 0 -0.7054284811019897
vn 0.6133206486701965 0 -0.7898340225219727
vn 0.6133206486701965 0 -0.7898340225219727
vn 0.5045913457870483 0 -0.8633583188056946
vn 0.5045913457870483 0 -0.8633583188056946
vn 0.385022759437561 0 -0.9229070544242859
vn 0.385022759437561 0 -0.9229070544242859
vn 0.2581740617752075 0 -0.966098427772522
vn 0.2581740617752075 0 -0.966098427772522
vn 0.1283505707979202 0 -0.9917288422584534
vn 0.1283505707979202 0 -0.9917288422584534
vn 8.332991021079599e-16 0 -1
vn 8.332991021079599e-16 0 -1
vn -0.2162604629993439 0 -0.9763357043266296
vn -0.2162604629993439 0 -0.9763357043266296
vn -0.4282230138778687 0 -0.9036731123924255
vn -0.4282230138778687 0 -0.9036731123924255
vn -0.6162811517715454 0 -0.7875262498855591
vn -0.6162811517715454 0 -0.7875262498855591
vn -0.767424464225769 0 -0.6411393880844116
vn -0.767424464225769 0 -0.6411393880844116
vn -0.8776223063468933 0 -0.479352742433548
vn -0.8776223063468933 0 -0.479352742433548
vn -0.9494181275367737 0 -0.3140146136283875
vn -0.9494181275367737 0 -0.3140146136283875
vn -0.9882593750953674 0 -0.1527856588363647
vn -0.9882593750953674 0 -0.1527856588363647
vn -1 0 -2.784695776514344e-15
vn -1 0 -2.784695776514344e-15
vn -0.9882593750953674 0 0.1527856588363647
vn -0.9882593750953674 0 0.1527856588363647
vn -0.9494181275367737 0 0.3140146136283875
vn -0.9494181275367737 0 0.3140146136283875
vn -0.8776223063468933 0 0.479352742433548
vn -0.8776223063468933 0 0.479352742433548
vn -0.767424464225769 0 0.6411393880844116
vn -0.767424464225769 0 0.6411393880844116
vn -0.6162811517715454 0 0.7875262498855591
vn -0.6162811517715454 0 0.7875262498855591
vn -0.4282230138778687 0 0.9036731123924255
vn -0.4282230138778687 0 0.9036731123924255
vn -0.2162604629993439 0 0.9763357043266296
vn -0.2162604629993439 0 0.9763357043266296
vn 1.66659820421592e-15 0 1
vn 1.66659820421592e-15 0 1
vn 0.1283505409955978 0 0.9917288422584534
vn 0.1283505409955978 0 0.9917288422584534
vn 0.2581740319728851 0 0.966098427772522
vn 0.2581740319728851 0 0.966098427772522
vn 0.385022759437561 0 0.9229070544242859
vn 0.385022759437561 0 0.9229070544242859
vn 0.5045913457870483 0 0.8633583188056946
vn 0.5045913457870483 0 0.8633583188056946
vn 0.6133206486701965 0 0.7898340225219727
vn 0.6133206486701965 0 0.7898340225219727
vn 0.7087811827659607 0 0.705428421497345
vn 0.7087811827659607 0 0.705428421497345
vn 0.7897557616233826 0 0.6134213805198669
vn 0.7897557616233826 0 0.6134213805198669
vn 0.8560738563537598 0 0.5168535113334656
vn 0.8560738563537598 0 0.5168535113334656
vn 0.699736475944519 0 0.7144010663032532
vn 0.699736475944519 0 0.7144010663032532
vn 0.4915010035037994 0 0.8708770275115967
vn 0.4915010035037994 0 0.8708770275115967
vn 0.2499188482761383 0 0.9682667851448059
vn 0.2499188482761383 0 0.9682667851448059
vn -5.292432277473856e-14 0 1
vn -5.292432277473856e-14 0 1
vn 0 -1 0
vn 0 -1 0
vn 0 -1 0
vn 0 -1 0
vn 0 -1 0
vn 0 -1 0
vn 0 -1 0
vn 0 -1 0
vn 0 -1 0
vn 0 -1 0
vn 0 -1 0
vn 0 -1 0
vn 0 -1 0
vn 0 -1 0
vn 0 -1 0
vn 0 -1 0
vn 0 -1 0
vn 0 -1 0
vn 0 -1 0
vn 0 -1 0
vn 0 -1 0
vn 0 -1 0
vn 0 -1 0
vn 0 -1 0
vn 0 -1 0
vn 0 -1 0
vn 0 -1 0
vn 0 -1 0
vn 0 -1 0
vn 0 -1 0
vn 0 -1 0
vn 0 -1 0
vn 0 -1 0
vn 0 -1 0
vn 0 -1 0
vn 0 -1 0
vn 0 -1 0
vn 0 -1 0
vn 0 -1 0
vn 0 -1 0
vn 0 -1 0
vn 0 -1 0
vn 0 -1 0
vn 0 1 0
vn 0 1 0
vn 0 1 0
vn 0 1 0
vn 0 1 0
vn 0 1 0
vn 0 1 0
vn 0 1 0
vn 0 1 0
vn 0 1 0
vn 0 1 0
vn 0 1 0
vn 0 1 0
vn 0 1 0
vn 0 1 0
vn 0 1 0
vn 0 1 0
vn 0 1 0
vn 0 1 0
vn 0 1 0
vn 0 1 0
vn 0 1 0
vn 0 1 0
vn 0 1 0
vn 0 1 0
vn 0 1 0
vn 0 1 0
vn 0 1 0
vn 0 1 0
vn 0 1 0
vn 0 1 0
vn 0 1 0
vn 0 1 0
vn 0 1 0
vn 0 1 0
vn 0 1 0
vn 0 1 0
vn 0 1 0
vn 0 1 0
vn 0 1 0
vn 0 1 0
vn 0 1 0
vn 0 1 0
f 1/1/1 3/3/3 4/4/4 2/2/2
f 5/5/5 7/7/7 8/8/8 6/6/6
f 9/9/9 11/11/11 12/12/12 10/10/10
f 11/11/11 13/13/13 14/14/14 12/12/12
f 13/13/13 15/15/15 16/16/16 14/14/14
f 15/15/15 17/17/17 18/18/18 16/16/16
f 17/17/17 19/19/19 20/20/20 18/18/18
f 19/19/19 21/21/21 22/22/22 20/20/20
f 21/21/21 23/23/23 24/24/24 22/22/22
f 23/23/23 25/25/25 26/26/26 24/24/24
f 25/25/25 27/27/27 28/28/28 26/26/26
f 27/27/27 29/29/29 30/30/30 28/28/28
f 29/29/29 31/31/31 32/32/32 30/30/30
f 31/31/31 33/33/33 34/34/34 32/32/32
f 33/33/33 35/35/35 36/36/36 34/34/34
f 35/35/35 37/37/37 38/38/38 36/36/36
f 37/37/37 39/39/39 40/40/40 38/38/38
f 39/39/39 41/41/41 42/42/42 40/40/40
f 41/41/41 43/43/43 44/44/44 42/42/42
f 43/43/43 45/45/45 46/46/46 44/44/44
f 45/45/45 47/47/47 48/48/48 46/46/46
f 47/47/47 49/49/49 50/50/50 48/48/48
f 49/49/49 51/51/51 52/52/52 50/50/50
f 51/51/51 53/53/53 54/54/54 52/52/52
f 53/53/53 55/55/55 56/56/56 54/54/54
f 55/55/55 57/57/57 58/58/58 56/56/56
f 57/57/57 59/59/59 60/60/60 58/58/58
f 59/59/59 61/61/61 62/62/62 60/60/60
f 61/61/61 63/63/63 64/64/64 62/62/62
f 63/63/63 65/65/65 66/66/66 64/64/64
f 65/65/65 67/67/67 68/68/68 66/66/66
f 67/67/67 69/69/69 70/70/70 68/68/68
f 69/69/69 71/71/71 72/72/72 70/70/70
f 71/71/71 73/73/73 74/74/74 72/72/72
f 73/73/73 75/75/75 76/76/76 74/74/74
f 75/75/75 77/77/77 78/78/78 76/76/76
f 77/77/77 79/79/79 80/80/80 78/78/78
f 79/79/79 81/81/81 82/82/82 80/80/80
f 81/81/81 83/83/83 84/84/84 82/82/82
f 83/83/83 85/85/85 86/86/86 84/84/84
f 85/85/85 87/87/87 88/88/88 86/86/86
f 87/87/87 89/89/89 90/90/90 88/88/88
f 89/89/89 91/91/91 92/92/92 90/90/90
f 120/120/120 119/119/119 132/132/132
f 118/118/118 132/132/132 119/119/119
f 118/118/118 117/117/117 132/132/132
f 130/130/130 121/121/121 120/120/120
f 123/123/123 125/125/125 124/124/124
f 123/123/123 122/122/122 127/127/127
f 125/125/125 123/123/123 126/126/126
f 128/128/128 122/122/122 121/121/121
f 132/132/132 117/117/117 116/116/116
f 113/113/113 100/100/100 114/114/114
f 102/102/102 112/112/112 111/111/111
f 100/100/100 113/113/113 112/112/112
f 115/115/115 114/114/114 100/100/100
f 105/105/105 110/110/110 109/109/109
f 110/110/110 104/104/104 111/111/111
f 106/106/106 105/105/105 109/109/109
f 108/108/108 107/107/107 109/109/109
f 106/106/106 109/109/109 107/107/107
f 116/116/116 115/115/115 100/100/100
f 126/126/126 123/123/123 127/127/127
f 121/121/121 129/129/129 128/128/128
f 130/130/130 120/120/120 131/131/131
f 130/130/130 129/129/129 121/121/121
f 120/120/120 132/132/132 131/131/131
f 99/99/99 134/134/134 133/133/133
f 133/133/133 132/132/132 116/116/116
f 95/95/95 94/94/94 93/93/93
f 97/97/97 93/93/93 135/135/135
f 98/98/98 135/135/135 134/134/134
f 116/116/116 99/99/99 133/133/133
f 102/102/102 111/111/111 103/103/103
f 105/105/105 104/104/104 110/110/110
f 104/104/104 103/103/103 111/111/111
f 102/102/102 101/101/101 112/112/112
f 93/93/93 97/97/97 96/96/96
f 93/93/93 96/96/96 95/95/95
f 101/101/101 100/100/100 112/112/112
f 134/134/134 99/99/99 98/98/98
f 135/135/135 98/98/98 97/97/97
f 116/116/116 100/100/100 99/99/99
f 128/128/128 127/127/127 122/122/122
f 163/163/163 175/175/175 162/162/162
f 161/161/161 162/162/162 175/175/175
f 161/161/161 175/175/175 160/160/160
f 173/173/173 163/163/163 164/164/164
f 166/166/166 167/167/167 168/168/168
f 166/166/166 170/170/170 165/165/165
f 168/168/168 169/169/169 166/166/166
f 171/171/171 164/164/164 165/165/165
f 175/175/175 159/159/159 160/160/160
f 156/156/156 157/157/157 143/143/143
f 145/145/145 154/154/154 155/155/155
f 143/143/143 155/155/155 156/156/156
f 158/158/158 143/143/143 157/157/157
f 148/148/148 152/152/152 153/153/153
f 153/153/153 154/154/154 147/147/147
f 149/149/149 152/152/152 148/148/148
f 151/151/151 152/152/152 150/150/150
f 149/149/149 150/150/150 152/152/152
f 159/159/159 143/143/143 158/158/158
f 169/169/169 170/170/170 166/166/166
f 164/164/164 171/171/171 172/172/172
f 173/173/173 174/174/174 163/163/163
f 173/173/173 164/164/164 172/172/172
f 163/163/163 174/174/174 175/175/175
f 142/142/142 176/176/176 177/177/177
f 176/176/176 159/159/159 175/175/175
f 138/138/138 136/136/136 137/137/137
f 140/140/140 178/178/178 136/136/136
f 141/141/141 177/177/177 178/178/178
f 159/159/159 176/176/176 142/142/142
f 145/145/145 146/146/146 154/154/154
f 148/148/148 153/153/153 147/147/147
f 147/147/147 154/154/154 146/146/146
f 145/145/145 155/155/155 144/144/144
f 136/136/136 139/139/139 140/140/140
f 136/136/136 138/138/138 139/139/139
f 144/144/144 155/155/155 143/143/143
f 177/177/177 141/141/141 142/142/142
f 178/178/178 140/140/140 141/141/141
f 159/159/159 142/142/142 143/143/143
f 171/171/171 165/165/165 170/170/170
