# Rhino

mtllib TOOLS_Templates_TypeC.mtl
g object_1
usemtl Default
v 61.15196990966797 0 6.252813339233398
v 61.15196990966797 5 6.252813339233398
v 61.15196990966797 0 -22.05717468261719
v 61.15196990966797 5 -22.05717468261719
v 60.98502349853516 0 -23.87680435180664
v 60.98502349853516 5 -23.87680435180664
v 60.44985198974609 0 -25.73812103271484
v 60.44985198974609 5 -25.73812103271484
v 59.52192306518555 0 -27.52927207946777
v 59.52192306518555 5 -27.52927207946777
v 58.22303771972656 0 -29.12824249267578
v 58.22303771972656 5 -29.12824249267578
v 56.62406539916992 0 -30.4271297454834
v 56.62406539916992 5 -30.4271297454834
v 54.83291625976562 0 -31.35505676269531
v 54.83291625976562 5 -31.35505676269531
v 52.97159957885742 0 -31.89022827148438
v 52.97159957885742 5 -31.89022827148438
v 51.15196990966797 0 -32.05717468261719
v 51.15196990966797 5 -32.05717468261719
v -53.94547271728516 0 -32.05717468261719
v -53.94547271728516 5 -32.05717468261719
v -55.76510238647461 0 -31.89022827148438
v -55.76510238647461 5 -31.89022827148438
v -57.62641906738281 0 -31.35505676269531
v -57.62641906738281 5 -31.35505676269531
v -59.41757202148438 0 -30.4271297454834
v -59.41757202148438 5 -30.4271297454834
v -61.01654052734375 0 -29.12824249267578
v -61.01654052734375 5 -29.12824249267578
v -62.3154296875 0 -27.52927207946777
v -62.3154296875 5 -27.52927207946777
v -63.24335479736328 0 -25.73812103271484
v -63.24335479736328 5 -25.73812103271484
v -63.77852630615234 0 -23.87680435180664
v -63.77852630615234 5 -23.87680435180664
v -63.94547271728516 0 -22.05717468261719
v -63.94547271728516 5 -22.05717468261719
v -63.94547271728516 0 6.252813339233398
v -63.94547271728516 5 6.252813339233398
v -63.77852630615234 0 8.072443962097168
v -63.77852630615234 5 8.072443962097168
v -63.24335479736328 0 9.933760643005371
v -63.24335479736328 5 9.933760643005371
v -62.3154296875 0 11.72491073608398
v -62.3154296875 5 11.72491073608398
v -61.01654052734375 0 13.32388114929199
v -61.01654052734375 5 13.32388114929199
v -59.41757202148438 0 14.62276840209961
v -59.41757202148438 5 14.62276840209961
v -57.62641906738281 0 15.55069637298584
v -57.62641906738281 5 15.55069637298584
v -55.76510238647461 0 16.08586692810059
v -55.76510238647461 5 16.08586692810059
v -53.94547271728516 0 16.2528133392334
v -53.94547271728516 5 16.2528133392334
v 51.15196990966797 0 16.2528133392334
v 51.15196990966797 5 16.2528133392334
v 52.97159957885742 0 16.08586692810059
v 52.97159957885742 5 16.08586692810059
v 54.83291625976562 0 15.55069637298584
v 54.83291625976562 5 15.55069637298584
v 56.62406539916992 0 14.62276840209961
v 56.62406539916992 5 14.62276840209961
v 58.22303771972656 0 13.32388114929199
v 58.22303771972656 5 13.32388114929199
v 59.52192306518555 0 11.72491073608398
v 59.52192306518555 5 11.72491073608398
v 60.44985198974609 0 9.933760643005371
v 60.44985198974609 5 9.933760643005371
v 60.98502349853516 0 8.072443962097168
v 60.98502349853516 5 8.072443962097168
v 61.15196990966797 0 6.252813339233398
v 61.15196990966797 5 6.252813339233398
v 61.15196990966797 0 6.252813339233398
v 61.15196990966797 0 -22.05717468261719
v 60.98502349853516 0 -23.87680435180664
v 60.44985198974609 0 -25.73812103271484
v 59.52192306518555 0 -27.52927207946777
v 58.22303771972656 0 -29.12824249267578
v 56.62406539916992 0 -30.4271297454834
v 54.83291625976562 0 -31.35505676269531
v 52.97159957885742 0 -31.89022827148438
v 51.15196990966797 0 -32.05717468261719
v -53.94547271728516 0 -32.05717468261719
v -55.76510238647461 0 -31.89022827148438
v -57.62641906738281 0 -31.35505676269531
v -59.41757202148438 0 -30.4271297454834
v -61.01654052734375 0 -29.12824249267578
v -62.3154296875 0 -27.52927207946777
v -63.24335479736328 0 -25.73812103271484
v -63.77852630615234 0 -23.87680435180664
v -63.94547271728516 0 -22.05717468261719
v -63.94547271728516 0 6.252813339233398
v -63.77852630615234 0 8.072443962097168
v -63.24335479736328 0 9.933760643005371
v -62.3154296875 0 11.72491073608398
v -61.01654052734375 0 13.32388114929199
v -59.41757202148438 0 14.62276840209961
v -57.62641906738281 0 15.55069637298584
v -55.76510238647461 0 16.08586692810059
v -53.94547271728516 0 16.2528133392334
v 51.15196990966797 0 16.2528133392334
v 52.97159957885742 0 16.08586692810059
v 54.83291625976562 0 15.55069637298584
v 56.62406539916992 0 14.62276840209961
v 58.22303771972656 0 13.32388114929199
v 59.52192306518555 0 11.72491073608398
v 60.44985198974609 0 9.933760643005371
v 60.98502349853516 0 8.072443962097168
v 61.15196990966797 5 6.252813339233398
v 61.15196990966797 5 -22.05717468261719
v 60.98502349853516 5 -23.87680435180664
v 60.44985198974609 5 -25.73812103271484
v 59.52192306518555 5 -27.52927207946777
v 58.22303771972656 5 -29.12824249267578
v 56.62406539916992 5 -30.4271297454834
v 54.83291625976562 5 -31.35505676269531
v 52.97159957885742 5 -31.89022827148438
v 51.15196990966797 5 -32.05717468261719
v -53.94547271728516 5 -32.05717468261719
v -55.76510238647461 5 -31.89022827148438
v -57.62641906738281 5 -31.35505676269531
v -59.41757202148438 5 -30.4271297454834
v -61.01654052734375 5 -29.12824249267578
v -62.3154296875 5 -27.52927207946777
v -63.24335479736328 5 -25.73812103271484
v -63.77852630615234 5 -23.87680435180664
v -63.94547271728516 5 -22.05717468261719
v -63.94547271728516 5 6.252813339233398
v -63.77852630615234 5 8.072443962097168
v -63.24335479736328 5 9.933760643005371
v -62.3154296875 5 11.72491073608398
v -61.01654052734375 5 13.32388114929199
v -59.41757202148438 5 14.62276840209961
v -57.62641906738281 5 15.55069637298584
v -55.76510238647461 5 16.08586692810059
v -53.94547271728516 5 16.2528133392334
v 51.15196990966797 5 16.2528133392334
v 52.97159957885742 5 16.08586692810059
v 54.83291625976562 5 15.55069637298584
v 56.62406539916992 5 14.62276840209961
v 58.22303771972656 5 13.32388114929199
v 59.52192306518555 5 11.72491073608398
v 60.44985198974609 5 9.933760643005371
v 60.98502349853516 5 8.072443962097168
vt 0 0
vt 0 0.52460116147995
vt 0.08587978035211563 0
vt 0.08587978035211563 0.52460116147995
vt 0.09183614701032639 0
vt 0.09183614701032639 0.52460116147995
vt 0.09779250621795654 0
vt 0.09779250621795654 0.52460116147995
vt 0.1037488728761673 0
vt 0.1037488728761673 0.52460116147995
vt 0.1097052320837975 0
vt 0.1097052320837975 0.52460116147995
vt 0.1156615987420082 0
vt 0.1156615987420082 0.52460116147995
vt 0.1216179579496384 0
vt 0.1216179579496384 0.52460116147995
vt 0.1275743246078491 0
vt 0.1275743246078491 0.52460116147995
vt 0.1335306912660599 0
vt 0.1335306912660599 0.52460116147995
vt 0.4523490965366364 0
vt 0.4523490965366364 0.52460116147995
vt 0.4583054482936859 0
vt 0.4583054482936859 0.52460116147995
vt 0.4642618298530579 0
vt 0.4642618298530579 0.52460116147995
vt 0.4702181816101074 0
vt 0.4702181816101074 0.52460116147995
vt 0.4761745631694794 0
vt 0.4761745631694794 0.52460116147995
vt 0.4821309149265289 0
vt 0.4821309149265289 0.52460116147995
vt 0.4880872666835785 0
vt 0.4880872666835785 0.52460116147995
vt 0.4940436482429504 0
vt 0.4940436482429504 0.52460116147995
vt 0.5 0
vt 0.5 0.52460116147995
vt 0.5858798027038574 0
vt 0.5858798027038574 0.52460116147995
vt 0.591836154460907 0
vt 0.591836154460907 0.52460116147995
vt 0.5977925062179565 0
vt 0.5977925062179565 0.52460116147995
vt 0.6037488579750061 0
vt 0.6037488579750061 0.52460116147995
vt 0.6097052097320557 0
vt 0.6097052097320557 0.52460116147995
vt 0.61566162109375 0
vt 0.61566162109375 0.52460116147995
vt 0.6216179728507996 0
vt 0.6216179728507996 0.52460116147995
vt 0.6275743246078491 0
vt 0.6275743246078491 0.52460116147995
vt 0.6335306763648987 0
vt 0.6335306763648987 0.52460116147995
vt 0.9523491263389587 0
vt 0.9523491263389587 0.52460116147995
vt 0.9583054780960083 0
vt 0.9583054780960083 0.52460116147995
vt 0.9642618298530579 0
vt 0.9642618298530579 0.52460116147995
vt 0.9702181816101074 0
vt 0.9702181816101074 0.52460116147995
vt 0.976174533367157 0
vt 0.976174533367157 0.52460116147995
vt 0.9821308851242065 0
vt 0.9821308851242065 0.52460116147995
vt 0.9880872964859009 0
vt 0.9880872964859009 0.52460116147995
vt 0.9940436482429504 0
vt 0.9940436482429504 0.52460116147995
vt 1 0
vt 1 0.52460116147995
vt 0.379606306552887 0.9015942215919495
vt 0.379606306552887 0.6230075359344482
vt 0.3790997266769409 0.6051012873649597
vt 0.3774757385253906 0.586784839630127
vt 0.3746599555015564 0.5691589117050171
vt 0.3707185089588165 0.5534241199493408
vt 0.3658664524555206 0.5406423211097717
vt 0.3604312539100647 0.5315109491348267
vt 0.3547831177711487 0.526244580745697
vt 0.349261462688446 0.5246016979217529
vt 0.03034484945237637 0.5246016979217529
vt 0.02482320927083492 0.526244580745697
vt 0.01917507126927376 0.5315109491348267
vt 0.01373985223472118 0.5406423211097717
vt 0.008887800388038158 0.5534241199493408
vt 0.004946346860378981 0.5691589117050171
vt 0.002130563370883465 0.586784839630127
vt 0.0005065961158834398 0.6051012873649597
vt 6.897495698005766e-16 0.6230075359344482
vt 0 0.9015942215919495
vt 0.0005065961158834398 0.9195004105567932
vt 0.002130563370883465 0.937816858291626
vt 0.004946346860378981 0.9554427862167358
vt 0.008887800388038158 0.9711776375770569
vt 0.01373985223472118 0.983959436416626
vt 0.01917507126927376 0.9930907487869263
vt 0.02482320927083492 0.9983571767807007
vt 0.03034484945237637 1
vt 0.349261462688446 1
vt 0.3547831177711487 0.9983571767807007
vt 0.3604312539100647 0.9930907487869263
vt 0.3658664524555206 0.983959436416626
vt 0.3707185089588165 0.9711776375770569
vt 0.3746599555015564 0.9554427862167358
vt 0.3774757385253906 0.937816858291626
vt 0.3790997266769409 0.9195004105567932
vt 0.379606306552887 0.6230075359344482
vt 0.379606306552887 0.9015942215919495
vt 0.3790997266769409 0.9195004105567932
vt 0.3774757385253906 0.937816858291626
vt 0.3746599555015564 0.9554427862167358
vt 0.3707185089588165 0.9711776375770569
vt 0.3658664524555206 0.983959436416626
vt 0.3604312539100647 0.9930907487869263
vt 0.3547831177711487 0.9983571767807007
vt 0.349261462688446 1
vt 0.03034484945237637 1
vt 0.02482320927083492 0.9983571767807007
vt 0.01917507126927376 0.9930907487869263
vt 0.01373985223472118 0.983959436416626
vt 0.008887800388038158 0.9711776375770569
vt 0.004946346860378981 0.9554427862167358
vt 0.002130563370883465 0.937816858291626
vt 0.0005065961158834398 0.9195004105567932
vt 6.897495698005766e-16 0.9015942215919495
vt 0 0.6230075359344482
vt 0.0005065961158834398 0.6051012873649597
vt 0.002130563370883465 0.586784839630127
vt 0.004946346860378981 0.5691589117050171
vt 0.008887800388038158 0.5534241199493408
vt 0.01373985223472118 0.5406423211097717
vt 0.01917507126927376 0.5315109491348267
vt 0.02482320927083492 0.526244580745697
vt 0.03034484945237637 0.5246016979217529
vt 0.349261462688446 0.5246016979217529
vt 0.3547831177711487 0.526244580745697
vt 0.3604312539100647 0.5315109491348267
vt 0.3658664524555206 0.5406423211097717
vt 0.3707185089588165 0.5534241199493408
vt 0.3746599555015564 0.5691589117050171
vt 0.3774757385253906 0.586784839630127
vt 0.3790997266769409 0.6051012873649597
vn 1 0 0
vn 1 0 0
vn 1 0 -1.479777252644222e-15
vn 1 0 -1.479777252644222e-15
vn 0.9833053946495056 0 -0.1819630563259125
vn 0.9833053946495056 0 -0.1819630563259125
vn 0.9297882914543152 0 -0.3680947124958038
vn 0.9297882914543152 0 -0.3680947124958038
vn 0.8369954824447632 0 -0.5472097396850586
vn 0.8369954824447632 0 -0.5472097396850586
vn 0.7071067690849304 0 -0.7071067690849304
vn 0.7071067690849304 0 -0.7071067690849304
vn 0.5472097396850586 0 -0.8369954824447632
vn 0.5472097396850586 0 -0.8369954824447632
vn 0.3680947124958038 0 -0.9297882914543152
vn 0.3680947124958038 0 -0.9297882914543152
vn 0.1819630563259125 0 -0.9833053946495056
vn 0.1819630563259125 0 -0.9833053946495056
vn 0 0 -1
vn 0 0 -1
vn -1.134495939574855e-14 0 -1
vn -1.134495939574855e-14 0 -1
vn -0.1819630563259125 0 -0.9833053946495056
vn -0.1819630563259125 0 -0.9833053946495056
vn -0.3680947124958038 0 -0.9297882914543152
vn -0.3680947124958038 0 -0.9297882914543152
vn -0.5472097396850586 0 -0.8369954824447632
vn -0.5472097396850586 0 -0.8369954824447632
vn -0.7071067690849304 0 -0.7071067690849304
vn -0.7071067690849304 0 -0.7071067690849304
vn -0.8369954824447632 0 -0.5472097396850586
vn -0.8369954824447632 0 -0.5472097396850586
vn -0.9297882914543152 0 -0.3680947124958038
vn -0.9297882914543152 0 -0.3680947124958038
vn -0.9833053946495056 0 -0.1819630563259125
vn -0.9833053946495056 0 -0.1819630563259125
vn -1 0 -8.031570641030012e-15
vn -1 0 -8.031570641030012e-15
vn -1 0 2.466295456366742e-15
vn -1 0 2.466295456366742e-15
vn -0.9833053946495056 0 0.1819630563259125
vn -0.9833053946495056 0 0.1819630563259125
vn -0.9297882914543152 0 0.3680947124958038
vn -0.9297882914543152 0 0.3680947124958038
vn -0.8369954824447632 0 0.5472097396850586
vn -0.8369954824447632 0 0.5472097396850586
vn -0.7071067690849304 0 0.7071067690849304
vn -0.7071067690849304 0 0.7071067690849304
vn -0.5472097396850586 0 0.8369954824447632
vn -0.5472097396850586 0 0.8369954824447632
vn -0.3680947124958038 0 0.9297882914543152
vn -0.3680947124958038 0 0.9297882914543152
vn -0.1819630563259125 0 0.9833053946495056
vn -0.1819630563259125 0 0.9833053946495056
vn 0 0 1
vn 0 0 1
vn 1.479777231468398e-14 0 1
vn 1.479777231468398e-14 0 1
vn 0.1819630563259125 0 0.9833053946495056
vn 0.1819630563259125 0 0.9833053946495056
vn 0.3680947124958038 0 0.9297882914543152
vn 0.3680947124958038 0 0.9297882914543152
vn 0.5472097396850586 0 0.8369954824447632
vn 0.5472097396850586 0 0.8369954824447632
vn 0.7071067690849304 0 0.7071067690849304
vn 0.7071067690849304 0 0.7071067690849304
vn 0.8369954824447632 0 0.5472097396850586
vn 0.8369954824447632 0 0.5472097396850586
vn 0.9297882914543152 0 0.3680947124958038
vn 0.9297882914543152 0 0.3680947124958038
vn 0.9833053946495056 0 0.1819630563259125
vn 0.9833053946495056 0 0.1819630563259125
vn 1 0 1.183821802115377e-14
vn 1 0 1.183821802115377e-14
vn 0 -1 0
vn 0 -1 0
vn 0 -1 0
vn 0 -1 0
vn 0 -1 0
vn 0 -1 0
vn 0 -1 0
vn 0 -1 0
vn 0 -1 0
vn 0 -1 0
vn 0 -1 0
vn 0 -1 0
vn 0 -1 0
vn 0 -1 0
vn 0 -1 0
vn 0 -1 0
vn 0 -1 0
vn 0 -1 0
vn 0 -1 0
vn 0 -1 0
vn 0 -1 0
vn 0 -1 0
vn 0 -1 0
vn 0 -1 0
vn 0 -1 0
vn 0 -1 0
vn 0 -1 0
vn 0 -1 0
vn 0 -1 0
vn 0 -1 0
vn 0 -1 0
vn 0 -1 0
vn 0 -1 0
vn 0 -1 0
vn 0 -1 0
vn 0 -1 0
vn 0 1 0
vn 0 1 0
vn 0 1 0
vn 0 1 0
vn 0 1 0
vn 0 1 0
vn 0 1 0
vn 0 1 0
vn 0 1 0
vn 0 1 0
vn 0 1 0
vn 0 1 0
vn 0 1 0
vn 0 1 0
vn 0 1 0
vn 0 1 0
vn 0 1 0
vn 0 1 0
vn 0 1 0
vn 0 1 0
vn 0 1 0
vn 0 1 0
vn 0 1 0
vn 0 1 0
vn 0 1 0
vn 0 1 0
vn 0 1 0
vn 0 1 0
vn 0 1 0
vn 0 1 0
vn 0 1 0
vn 0 1 0
vn 0 1 0
vn 0 1 0
vn 0 1 0
vn 0 1 0
f 1/1/1 3/3/3 4/4/4 2/2/2
f 3/3/3 5/5/5 6/6/6 4/4/4
f 5/5/5 7/7/7 8/8/8 6/6/6
f 7/7/7 9/9/9 10/10/10 8/8/8
f 9/9/9 11/11/11 12/12/12 10/10/10
f 11/11/11 13/13/13 14/14/14 12/12/12
f 13/13/13 15/15/15 16/16/16 14/14/14
f 15/15/15 17/17/17 18/18/18 16/16/16
f 17/17/17 19/19/19 20/20/20 18/18/18
f 19/19/19 21/21/21 22/22/22 20/20/20
f 21/21/21 23/23/23 24/24/24 22/22/22
f 23/23/23 25/25/25 26/26/26 24/24/24
f 25/25/25 27/27/27 28/28/28 26/26/26
f 27/27/27 29/29/29 30/30/30 28/28/28
f 29/29/29 31/31/31 32/32/32 30/30/30
f 31/31/31 33/33/33 34/34/34 32/32/32
f 33/33/33 35/35/35 36/36/36 34/34/34
f 35/35/35 37/37/37 38/38/38 36/36/36
f 37/37/37 39/39/39 40/40/40 38/38/38
f 39/39/39 41/41/41 42/42/42 40/40/40
f 41/41/41 43/43/43 44/44/44 42/42/42
f 43/43/43 45/45/45 46/46/46 44/44/44
f 45/45/45 47/47/47 48/48/48 46/46/46
f 47/47/47 49/49/49 50/50/50 48/48/48
f 49/49/49 51/51/51 52/52/52 50/50/50
f 51/51/51 53/53/53 54/54/54 52/52/52
f 53/53/53 55/55/55 56/56/56 54/54/54
f 55/55/55 57/57/57 58/58/58 56/56/56
f 57/57/57 59/59/59 60/60/60 58/58/58
f 59/59/59 61/61/61 62/62/62 60/60/60
f 61/61/61 63/63/63 64/64/64 62/62/62
f 63/63/63 65/65/65 66/66/66 64/64/64
f 65/65/65 67/67/67 68/68/68 66/66/66
f 67/67/67 69/69/69 70/70/70 68/68/68
f 69/69/69 71/71/71 72/72/72 70/70/70
f 71/71/71 73/73/73 74/74/74 72/72/72
f 102/102/102 96/96/96 94/94/94
f 96/96/96 95/95/95 94/94/94
f 98/98/98 97/97/97 96/96/96
f 98/98/98 102/102/102 101/101/101
f 100/100/100 99/99/99 98/98/98
f 101/101/101 100/100/100 98/98/98
f 98/98/98 96/96/96 102/102/102
f 93/93/93 102/102/102 94/94/94
f 91/91/91 93/93/93 92/92/92
f 91/91/91 90/90/90 88/88/88
f 88/88/88 93/93/93 91/91/91
f 88/88/88 90/90/90 89/89/89
f 87/87/87 86/86/86 88/88/88
f 85/85/85 88/88/88 86/86/86
f 88/88/88 85/85/85 93/93/93
f 85/85/85 102/102/102 93/93/93
f 85/85/85 84/84/84 102/102/102
f 105/105/105 104/104/104 103/103/103
f 75/75/75 105/105/105 103/103/103
f 106/106/106 105/105/105 108/108/108
f 108/108/108 105/105/105 109/109/109
f 75/75/75 110/110/110 109/109/109
f 109/109/109 105/105/105 75/75/75
f 107/107/107 106/106/106 108/108/108
f 84/84/84 75/75/75 103/103/103
f 83/83/83 82/82/82 81/81/81
f 79/79/79 83/83/83 81/81/81
f 84/84/84 83/83/83 76/76/76
f 77/77/77 83/83/83 78/78/78
f 80/80/80 79/79/79 81/81/81
f 79/79/79 78/78/78 83/83/83
f 76/76/76 83/83/83 77/77/77
f 76/76/76 75/75/75 84/84/84
f 102/102/102 84/84/84 103/103/103
f 138/138/138 130/130/130 132/132/132
f 132/132/132 130/130/130 131/131/131
f 134/134/134 132/132/132 133/133/133
f 134/134/134 137/137/137 138/138/138
f 136/136/136 134/134/134 135/135/135
f 137/137/137 134/134/134 136/136/136
f 134/134/134 138/138/138 132/132/132
f 129/129/129 130/130/130 138/138/138
f 127/127/127 128/128/128 129/129/129
f 127/127/127 124/124/124 126/126/126
f 124/124/124 127/127/127 129/129/129
f 124/124/124 125/125/125 126/126/126
f 123/123/123 124/124/124 122/122/122
f 121/121/121 122/122/122 124/124/124
f 124/124/124 129/129/129 121/121/121
f 121/121/121 129/129/129 138/138/138
f 121/121/121 138/138/138 120/120/120
f 141/141/141 139/139/139 140/140/140
f 111/111/111 139/139/139 141/141/141
f 142/142/142 144/144/144 141/141/141
f 144/144/144 145/145/145 141/141/141
f 111/111/111 145/145/145 146/146/146
f 145/145/145 111/111/111 141/141/141
f 143/143/143 144/144/144 142/142/142
f 120/120/120 139/139/139 111/111/111
f 119/119/119 117/117/117 118/118/118
f 115/115/115 117/117/117 119/119/119
f 120/120/120 112/112/112 119/119/119
f 113/113/113 114/114/114 119/119/119
f 116/116/116 117/117/117 115/115/115
f 115/115/115 119/119/119 114/114/114
f 112/112/112 113/113/113 119/119/119
f 112/112/112 120/120/120 111/111/111
f 138/138/138 139/139/139 120/120/120
