# Rhino

mtllib TOOLS_Templates_Hexagon_Add_on.mtl
g object_1
usemtl Default
v 0.1143452972173691 0 -7.423628330230713
v 0.1143452972173691 5 -7.423628330230713
v -5.988137245178223 0 -3.900358200073242
v -5.988137245178223 5 -3.900358200073242
v -5.988137245178223 0 -3.900358200073242
v -5.988137245178223 5 -3.900358200073242
v -5.988137245178223 0 3.14618182182312
v -5.988137245178223 5 3.14618182182312
v -5.988137245178223 0 3.14618182182312
v -5.988137245178223 5 3.14618182182312
v 0.1143452972173691 0 6.669451713562012
v 0.1143452972173691 5 6.669451713562012
v 0.1143452972173691 0 6.669451713562012
v 0.1143452972173691 5 6.669451713562012
v 6.216827869415283 0 3.14618182182312
v 6.216827869415283 5 3.14618182182312
v 6.216827869415283 0 3.14618182182312
v 6.216827869415283 5 3.14618182182312
v 6.216827869415283 0 -3.900358200073242
v 6.216827869415283 5 -3.900358200073242
v 6.216827869415283 0 -3.900358200073242
v 6.216827869415283 5 -3.900358200073242
v 0.1143452972173691 0 -7.423628330230713
v 0.1143452972173691 5 -7.423628330230713
v 0.1143452972173691 0 -4.536877155303955
v 0.1143452972173691 5 -4.536877155303955
v 3.716828107833862 0 -2.456982612609863
v 3.716828107833862 5 -2.456982612609863
v 3.716828107833862 0 -2.456982612609863
v 3.716828107833862 5 -2.456982612609863
v 3.716828107833862 0 1.702806234359741
v 3.716828107833862 5 1.702806234359741
v 3.716828107833862 0 1.702806234359741
v 3.716828107833862 5 1.702806234359741
v 0.1143452972173691 0 3.782700538635254
v 0.1143452972173691 5 3.782700538635254
v 0.1143452972173691 0 3.782700538635254
v 0.1143452972173691 5 3.782700538635254
v -3.488137483596802 0 1.702806234359741
v -3.488137483596802 5 1.702806234359741
v -3.488137483596802 0 1.702806234359741
v -3.488137483596802 5 1.702806234359741
v -3.488137483596802 0 -2.456982612609863
v -3.488137483596802 5 -2.456982612609863
v -3.488137483596802 0 -2.456982612609863
v -3.488137483596802 5 -2.456982612609863
v 0.1143452972173691 0 -4.536877155303955
v 0.1143452972173691 5 -4.536877155303955
v 0.1143452972173691 0 -7.423628330230713
v -5.988137245178223 0 -3.900358200073242
v -5.988137245178223 0 3.14618182182312
v 0.1143452972173691 0 6.669451713562012
v 6.216827869415283 0 3.14618182182312
v 6.216827869415283 0 -3.900358200073242
v 0.1143452972173691 0 -4.536877155303955
v 3.716828107833862 0 -2.456982612609863
v 3.716828107833862 0 1.702806234359741
v 0.1143452972173691 0 3.782700538635254
v -3.488137483596802 0 1.702806234359741
v -3.488137483596802 0 -2.456982612609863
v 0.1143452972173691 5 -7.423628330230713
v -5.988137245178223 5 -3.900358200073242
v -5.988137245178223 5 3.14618182182312
v 0.1143452972173691 5 6.669451713562012
v 6.216827869415283 5 3.14618182182312
v 6.216827869415283 5 -3.900358200073242
v 0.1143452972173691 5 -4.536877155303955
v 3.716828107833862 5 -2.456982612609863
v 3.716828107833862 5 1.702806234359741
v 0.1143452972173691 5 3.782700538635254
v -3.488137483596802 5 1.702806234359741
v -3.488137483596802 5 -2.456982612609863
vt 0 0
vt 0 0.585004985332489
vt 0.1291000545024872 0
vt 0.1291000545024872 0.585004985332489
vt 0.1291000545024872 0
vt 0.1291000545024872 0.585004985332489
vt 0.1483599692583084 0
vt 0.1483599692583084 0.585004985332489
vt 0.1483599692583084 0
vt 0.1483599692583084 0.585004985332489
vt 0.1676198989152908 0
vt 0.1676198989152908 0.585004985332489
vt 0.1676198989152908 0
vt 0.1676198989152908 0.585004985332489
vt 0.1868798136711121 0
vt 0.1868798136711121 0.585004985332489
vt 0.1868798136711121 0
vt 0.1868798136711121 0.585004985332489
vt 0.2061397284269333 0
vt 0.2061397284269333 0.585004985332489
vt 0.2061397284269333 0
vt 0.2061397284269333 0.585004985332489
vt 0.2253996431827545 0
vt 0.2253996431827545 0.585004985332489
vt 0.2253996431827545 0
vt 0.2253996431827545 0.585004985332489
vt 0.3544996976852417 0
vt 0.3544996976852417 0.585004985332489
vt 0.3544996976852417 0
vt 0.3544996976852417 0.585004985332489
vt 0.4835997521877289 0
vt 0.4835997521877289 0.585004985332489
vt 0.4835997521877289 0
vt 0.4835997521877289 0.585004985332489
vt 0.6126998066902161 0
vt 0.6126998066902161 0.585004985332489
vt 0.6126998066902161 0
vt 0.6126998066902161 0.585004985332489
vt 0.7417998909950256 0
vt 0.7417998909950256 0.585004985332489
vt 0.7417998909950256 0
vt 0.7417998909950256 0.585004985332489
vt 0.8708999156951904 0
vt 0.8708999156951904 0.585004985332489
vt 0.8708999156951904 0
vt 0.8708999156951904 0.585004985332489
vt 1 0
vt 1 0.585004985332489
vt 0 0.792502760887146
vt 0.05240000411868095 1
vt 0.1572000086307526 1
vt 0.2096000164747238 0.792502760887146
vt 0.1572000086307526 0.585005521774292
vt 0.05240000411868095 0.585005521774292
vt 0.04293334856629372 0.792502760887146
vt 0.07386668026447296 0.6700108051300049
vt 0.1357333362102509 0.6700108051300049
vt 0.1666666716337204 0.792502760887146
vt 0.1357333362102509 0.9149947762489319
vt 0.07386668026447296 0.9149947762489319
vt 0 0.792502760887146
vt 0.05240000411868095 0.585005521774292
vt 0.1572000086307526 0.585005521774292
vt 0.2096000164747238 0.792502760887146
vt 0.1572000086307526 1
vt 0.05240000411868095 1
vt 0.04293334856629372 0.792502760887146
vt 0.07386668026447296 0.9149947762489319
vt 0.1357333362102509 0.9149947762489319
vt 0.1666666716337204 0.792502760887146
vt 0.1357333362102509 0.6700108051300049
vt 0.07386668026447296 0.6700108051300049
vn -0.5 0 -0.8660253882408142
vn -0.5 0 -0.8660253882408142
vn -0.5 0 -0.8660253882408142
vn -0.5 0 -0.8660253882408142
vn -1 0 0
vn -1 0 0
vn -1 0 0
vn -1 0 0
vn -0.5 0 0.8660253882408142
vn -0.5 0 0.8660253882408142
vn -0.5 0 0.8660253882408142
vn -0.5 0 0.8660253882408142
vn 0.5 0 0.8660253882408142
vn 0.5 0 0.8660253882408142
vn 0.5 0 0.8660253882408142
vn 0.5 0 0.8660253882408142
vn 1 0 0
vn 1 0 0
vn 1 0 0
vn 1 0 0
vn 0.5 0 -0.8660253882408142
vn 0.5 0 -0.8660253882408142
vn 0.5 0 -0.8660253882408142
vn 0.5 0 -0.8660253882408142
vn -0.5 0 0.8660253882408142
vn -0.5 0 0.8660253882408142
vn -0.5 0 0.8660253882408142
vn -0.5 0 0.8660253882408142
vn -1 0 0
vn -1 0 0
vn -1 0 0
vn -1 0 0
vn -0.5 0 -0.8660253882408142
vn -0.5 0 -0.8660253882408142
vn -0.5 0 -0.8660253882408142
vn -0.5 0 -0.8660253882408142
vn 0.5 0 -0.8660253882408142
vn 0.5 0 -0.8660253882408142
vn 0.5 0 -0.8660253882408142
vn 0.5 0 -0.8660253882408142
vn 1 0 0
vn 1 0 0
vn 1 0 0
vn 1 0 0
vn 0.5 0 0.8660253882408142
vn 0.5 0 0.8660253882408142
vn 0.5 0 0.8660253882408142
vn 0.5 0 0.8660253882408142
vn 0 -1 0
vn 0 -1 0
vn 0 -1 0
vn 0 -1 0
vn 0 -1 0
vn 0 -1 0
vn 0 -1 0
vn 0 -1 0
vn 0 -1 0
vn 0 -1 0
vn 0 -1 0
vn 0 -1 0
vn 0 1 0
vn 0 1 0
vn 0 1 0
vn 0 1 0
vn 0 1 0
vn 0 1 0
vn 0 1 0
vn 0 1 0
vn 0 1 0
vn 0 1 0
vn 0 1 0
vn 0 1 0
f 1/1/1 3/3/3 4/4/4 2/2/2
f 5/5/5 7/7/7 8/8/8 6/6/6
f 9/9/9 11/11/11 12/12/12 10/10/10
f 13/13/13 15/15/15 16/16/16 14/14/14
f 17/17/17 19/19/19 20/20/20 18/18/18
f 21/21/21 23/23/23 24/24/24 22/22/22
f 25/25/25 27/27/27 28/28/28 26/26/26
f 29/29/29 31/31/31 32/32/32 30/30/30
f 33/33/33 35/35/35 36/36/36 34/34/34
f 37/37/37 39/39/39 40/40/40 38/38/38
f 41/41/41 43/43/43 44/44/44 42/42/42
f 45/45/45 47/47/47 48/48/48 46/46/46
f 52/52/52 51/51/51 59/59/59
f 57/57/57 52/52/52 58/58/58
f 58/58/58 52/52/52 59/59/59
f 60/60/60 59/59/59 50/50/50
f 51/51/51 50/50/50 59/59/59
f 49/49/49 60/60/60 50/50/50
f 54/54/54 57/57/57 56/56/56
f 52/52/52 57/57/57 53/53/53
f 53/53/53 57/57/57 54/54/54
f 49/49/49 54/54/54 55/55/55
f 56/56/56 55/55/55 54/54/54
f 60/60/60 49/49/49 55/55/55
f 64/64/64 71/71/71 63/63/63
f 69/69/69 70/70/70 64/64/64
f 70/70/70 71/71/71 64/64/64
f 72/72/72 62/62/62 71/71/71
f 63/63/63 71/71/71 62/62/62
f 61/61/61 62/62/62 72/72/72
f 66/66/66 68/68/68 69/69/69
f 64/64/64 65/65/65 69/69/69
f 65/65/65 66/66/66 69/69/69
f 61/61/61 67/67/67 66/66/66
f 68/68/68 66/66/66 67/67/67
f 72/72/72 67/67/67 61/61/61
