# Rhino

mtllib TOOLS_Templates_SpannerHead_Add_on.mtl
g object_1
usemtl Default
v 6.363458633422852 0 3.916994333267212
v 6.363458633422852 5 3.916994333267212
v 6.363458633422852 0 -3.392406702041626
v 6.363458633422852 5 -3.392406702041626
v 6.363458633422852 0 -3.392406702041626
v 6.363458633422852 5 -3.392406702041626
v 8.714472770690918 0 -4.749765396118164
v 8.714472770690918 5 -4.749765396118164
v 8.714472770690918 0 -4.749765396118164
v 8.714472770690918 5 -4.749765396118164
v 8.714472770690918 0 -8.04096508026123
v 8.714472770690918 5 -8.04096508026123
v 8.714472770690918 0 -8.04096508026123
v 8.714472770690918 5 -8.04096508026123
v 6.214472770690918 0 -10.54096508026123
v 6.214472770690918 5 -10.54096508026123
v 6.214472770690918 0 -10.54096508026123
v 6.214472770690918 5 -10.54096508026123
v 6.214472770690918 0 -6.193140983581543
v 6.214472770690918 5 -6.193140983581543
v 6.214472770690918 0 -6.193140983581543
v 6.214472770690918 5 -6.193140983581543
v 1.506182193756104 0 -3.474808216094971
v 1.506182193756104 5 -3.474808216094971
v 1.506182193756104 0 -3.474808216094971
v 1.506182193756104 5 -3.474808216094971
v -3.20210862159729 0 -6.193140983581543
v -3.20210862159729 5 -6.193140983581543
v -3.20210862159729 0 -6.193140983581543
v -3.20210862159729 5 -6.193140983581543
v -3.20210862159729 0 -10.54096508026123
v -3.20210862159729 5 -10.54096508026123
v -3.20210862159729 0 -10.54096508026123
v -3.20210862159729 5 -10.54096508026123
v -5.702108383178711 0 -8.04096508026123
v -5.702108383178711 5 -8.04096508026123
v -5.702108383178711 0 -8.04096508026123
v -5.702108383178711 5 -8.04096508026123
v -5.702108383178711 0 -4.749765396118164
v -5.702108383178711 5 -4.749765396118164
v -5.702108383178711 0 -4.749765396118164
v -5.702108383178711 5 -4.749765396118164
v -3.351094484329224 0 -3.392406702041626
v -3.351094484329224 5 -3.392406702041626
v -3.351094484329224 0 -3.392406702041626
v -3.351094484329224 5 -3.392406702041626
v -3.351094484329224 0 3.916994333267212
v -3.351094484329224 5 3.916994333267212
v -3.351094484329224 0 3.916994333267212
v -3.351094484329224 5 3.916994333267212
v 6.363458633422852 0 3.916994333267212
v 6.363458633422852 5 3.916994333267212
v 6.363458633422852 0 3.916994333267212
v 6.363458633422852 0 -3.392406702041626
v 8.714472770690918 0 -4.749765396118164
v 8.714472770690918 0 -8.04096508026123
v 6.214472770690918 0 -10.54096508026123
v 6.214472770690918 0 -6.193140983581543
v 1.506182193756104 0 -3.474808216094971
v -3.20210862159729 0 -6.193140983581543
v -3.20210862159729 0 -10.54096508026123
v -5.702108383178711 0 -8.04096508026123
v -5.702108383178711 0 -4.749765396118164
v -3.351094484329224 0 -3.392406702041626
v -3.351094484329224 0 3.916994333267212
v 6.363458633422852 5 3.916994333267212
v 6.363458633422852 5 -3.392406702041626
v 8.714472770690918 5 -4.749765396118164
v 8.714472770690918 5 -8.04096508026123
v 6.214472770690918 5 -10.54096508026123
v 6.214472770690918 5 -6.193140983581543
v 1.506182193756104 5 -3.474808216094971
v -3.20210862159729 5 -6.193140983581543
v -3.20210862159729 5 -10.54096508026123
v -5.702108383178711 5 -8.04096508026123
v -5.702108383178711 5 -4.749765396118164
v -3.351094484329224 5 -3.392406702041626
v -3.351094484329224 5 3.916994333267212
vt 0 0
vt 0 0.5738916397094727
vt 0.06050648167729378 0
vt 0.06050648167729378 0.5738916397094727
vt 0.06050648167729378 0
vt 0.06050648167729378 0.5738916397094727
vt 0.06440340727567673 0
vt 0.06440340727567673 0.5738916397094727
vt 0.06440340727567673 0
vt 0.06440340727567673 0.5738916397094727
vt 0.1309475600719452 0
vt 0.1309475600719452 0.5738916397094727
vt 0.1309475600719452 0
vt 0.1309475600719452 0.5738916397094727
vt 0.2261629700660706 0
vt 0.2261629700660706 0.5738916397094727
vt 0.2261629700660706 0
vt 0.2261629700660706 0.5738916397094727
vt 0.3432541489601135 0
vt 0.3432541489601135 0.5738916397094727
vt 0.3432541489601135 0
vt 0.3432541489601135 0.5738916397094727
vt 0.4896689057350159 0
vt 0.4896689057350159 0.5738916397094727
vt 0.4896689057350159 0
vt 0.4896689057350159 0.5738916397094727
vt 0.6360836625099182 0
vt 0.6360836625099182 0.5738916397094727
vt 0.6360836625099182 0
vt 0.6360836625099182 0.5738916397094727
vt 0.7531748414039612 0
vt 0.7531748414039612 0.5738916397094727
vt 0.7531748414039612 0
vt 0.7531748414039612 0.5738916397094727
vt 0.8483902812004089 0
vt 0.8483902812004089 0.5738916397094727
vt 0.8483902812004089 0
vt 0.8483902812004089 0.5738916397094727
vt 0.8551805019378662 0
vt 0.8551805019378662 0.5738916397094727
vt 0.8551805019378662 0
vt 0.8551805019378662 0.5738916397094727
vt 0.8590774536132812 0
vt 0.8590774536132812 0.5738916397094727
vt 0.8590774536132812 0
vt 0.8590774536132812 0.5738916397094727
vt 0.9195839166641235 0
vt 0.9195839166641235 0.5738916397094727
vt 0.9195839166641235 0
vt 0.9195839166641235 0.5738916397094727
vt 1 0
vt 1 0.5738916397094727
vt 0.2295452058315277 0.6433806419372559
vt 0.1134957820177078 0.6433806419372559
vt 0.0919453501701355 0.5738922357559204
vt 0.03969183936715126 0.5738922357559204
vt 0 0.6477841734886169
vt 0.06902925670146942 0.6477841734886169
vt 0.1121875122189522 0.7869461178779602
vt 0.06902925670146942 0.9261080622673035
vt 0 0.9261080622673035
vt 0.03969183936715126 1
vt 0.0919453501701355 1
vt 0.1134957820177078 0.9305115938186646
vt 0.2295452058315277 0.9305115938186646
vt 0.2295452058315277 0.9305115938186646
vt 0.1134957820177078 0.9305115938186646
vt 0.0919453501701355 1
vt 0.03969183936715126 1
vt 0 0.9261080622673035
vt 0.06902925670146942 0.9261080622673035
vt 0.1121875122189522 0.7869461178779602
vt 0.06902925670146942 0.6477841734886169
vt 0 0.6477841734886169
vt 0.03969183936715126 0.5738922357559204
vt 0.0919453501701355 0.5738922357559204
vt 0.1134957820177078 0.6433806419372559
vt 0.2295452058315277 0.6433806419372559
vn 1 0 -4.666052768232017e-14
vn 1 0 -4.666052768232017e-14
vn 1 0 -4.666052768232017e-14
vn 1 0 -4.666052768232017e-14
vn 0.5 0 0.8660253882408142
vn 0.5 0 0.8660253882408142
vn 0.5 0 0.8660253882408142
vn 0.5 0 0.8660253882408142
vn 1 0 -6.908534210198561e-14
vn 1 0 -6.908534210198561e-14
vn 1 0 -6.908534210198561e-14
vn 1 0 -6.908534210198561e-14
vn 0.7071067690849304 0 -0.7071067690849304
vn 0.7071067690849304 0 -0.7071067690849304
vn 0.7071067690849304 0 -0.7071067690849304
vn 0.7071067690849304 0 -0.7071067690849304
vn -1 0 0
vn -1 0 0
vn -1 0 0
vn -1 0 0
vn -0.5 0 -0.8660253882408142
vn -0.5 0 -0.8660253882408142
vn -0.5 0 -0.8660253882408142
vn -0.5 0 -0.8660253882408142
vn 0.5 0 -0.8660253882408142
vn 0.5 0 -0.8660253882408142
vn 0.5 0 -0.8660253882408142
vn 0.5 0 -0.8660253882408142
vn 1 0 0
vn 1 0 0
vn 1 0 0
vn 1 0 0
vn -0.7071067690849304 0 -0.7071067690849304
vn -0.7071067690849304 0 -0.7071067690849304
vn -0.7071067690849304 0 -0.7071067690849304
vn -0.7071067690849304 0 -0.7071067690849304
vn -1 0 3.45426710509928e-14
vn -1 0 3.45426710509928e-14
vn -1 0 3.45426710509928e-14
vn -1 0 3.45426710509928e-14
vn -0.5 0 0.8660253882408142
vn -0.5 0 0.8660253882408142
vn -0.5 0 0.8660253882408142
vn -0.5 0 0.8660253882408142
vn -1 0 4.666052768232017e-14
vn -1 0 4.666052768232017e-14
vn -1 0 4.666052768232017e-14
vn -1 0 4.666052768232017e-14
vn 3.744874961346401e-13 0 1
vn 3.744874961346401e-13 0 1
vn 3.744874961346401e-13 0 1
vn 3.744874961346401e-13 0 1
vn 0 -1 0
vn 0 -1 0
vn 0 -1 0
vn 0 -1 0
vn 0 -1 0
vn 0 -1 0
vn 0 -1 0
vn 0 -1 0
vn 0 -1 0
vn 0 -1 0
vn 0 -1 0
vn 0 -1 0
vn 0 -1 0
vn 0 1 0
vn 0 1 0
vn 0 1 0
vn 0 1 0
vn 0 1 0
vn 0 1 0
vn 0 1 0
vn 0 1 0
vn 0 1 0
vn 0 1 0
vn 0 1 0
vn 0 1 0
vn 0 1 0
f 1/1/1 3/3/3 4/4/4 2/2/2
f 5/5/5 7/7/7 8/8/8 6/6/6
f 9/9/9 11/11/11 12/12/12 10/10/10
f 13/13/13 15/15/15 16/16/16 14/14/14
f 17/17/17 19/19/19 20/20/20 18/18/18
f 21/21/21 23/23/23 24/24/24 22/22/22
f 25/25/25 27/27/27 28/28/28 26/26/26
f 29/29/29 31/31/31 32/32/32 30/30/30
f 33/33/33 35/35/35 36/36/36 34/34/34
f 37/37/37 39/39/39 40/40/40 38/38/38
f 41/41/41 43/43/43 44/44/44 42/42/42
f 45/45/45 47/47/47 48/48/48 46/46/46
f 49/49/49 51/51/51 52/52/52 50/50/50
f 59/59/59 64/64/64 60/60/60
f 60/60/60 64/64/64 63/63/63
f 61/61/61 60/60/60 62/62/62
f 63/63/63 62/62/62 60/60/60
f 59/59/59 65/65/65 64/64/64
f 54/54/54 53/53/53 59/59/59
f 65/65/65 59/59/59 53/53/53
f 58/58/58 54/54/54 59/59/59
f 56/56/56 58/58/58 57/57/57
f 58/58/58 56/56/56 55/55/55
f 55/55/55 54/54/54 58/58/58
f 72/72/72 73/73/73 77/77/77
f 73/73/73 76/76/76 77/77/77
f 74/74/74 75/75/75 73/73/73
f 76/76/76 73/73/73 75/75/75
f 72/72/72 77/77/77 78/78/78
f 67/67/67 72/72/72 66/66/66
f 78/78/78 66/66/66 72/72/72
f 71/71/71 72/72/72 67/67/67
f 69/69/69 70/70/70 71/71/71
f 71/71/71 68/68/68 69/69/69
f 68/68/68 71/71/71 67/67/67
